<svg xmlns="http://www.w3.org/2000/svg" xmlns:xlink="http://www.w3.org/1999/xlink" width="192" zoomAndPan="magnify" viewBox="0 0 144 143.999998" height="192" preserveAspectRatio="xMidYMid meet" version="1.0"><path fill="#ffffff" d="M 144 72 C 144 73.179688 143.972656 74.355469 143.914062 75.53125 C 143.855469 76.710938 143.769531 77.882812 143.652344 79.058594 C 143.539062 80.230469 143.394531 81.398438 143.21875 82.566406 C 143.046875 83.730469 142.847656 84.890625 142.617188 86.046875 C 142.386719 87.203125 142.128906 88.351562 141.84375 89.496094 C 141.554688 90.636719 141.242188 91.773438 140.898438 92.902344 C 140.558594 94.027344 140.1875 95.148438 139.792969 96.257812 C 139.394531 97.367188 138.96875 98.464844 138.519531 99.554688 C 138.070312 100.640625 137.589844 101.71875 137.085938 102.785156 C 136.582031 103.847656 136.054688 104.902344 135.5 105.941406 C 134.941406 106.980469 134.363281 108.003906 133.757812 109.015625 C 133.152344 110.027344 132.519531 111.019531 131.867188 112 C 131.210938 112.980469 130.53125 113.945312 129.832031 114.890625 C 129.128906 115.835938 128.402344 116.765625 127.65625 117.675781 C 126.910156 118.585938 126.140625 119.480469 125.347656 120.351562 C 124.558594 121.226562 123.746094 122.078125 122.910156 122.910156 C 122.078125 123.746094 121.226562 124.558594 120.351562 125.347656 C 119.480469 126.140625 118.585938 126.910156 117.675781 127.65625 C 116.765625 128.402344 115.835938 129.128906 114.890625 129.832031 C 113.945312 130.53125 112.980469 131.210938 112 131.867188 C 111.019531 132.519531 110.027344 133.152344 109.015625 133.757812 C 108.003906 134.363281 106.980469 134.941406 105.941406 135.5 C 104.902344 136.054688 103.847656 136.582031 102.785156 137.085938 C 101.71875 137.589844 100.640625 138.070312 99.554688 138.519531 C 98.464844 138.96875 97.367188 139.394531 96.257812 139.792969 C 95.148438 140.1875 94.027344 140.558594 92.902344 140.898438 C 91.773438 141.242188 90.636719 141.554688 89.496094 141.84375 C 88.351562 142.128906 87.203125 142.386719 86.046875 142.617188 C 84.890625 142.847656 83.730469 143.046875 82.566406 143.21875 C 81.398438 143.394531 80.230469 143.539062 79.058594 143.652344 C 77.882812 143.769531 76.710938 143.855469 75.53125 143.914062 C 74.355469 143.972656 73.179688 144 72 144 C 70.820312 144 69.644531 143.972656 68.46875 143.914062 C 67.289062 143.855469 66.117188 143.769531 64.941406 143.652344 C 63.769531 143.539062 62.601562 143.394531 61.433594 143.21875 C 60.269531 143.046875 59.109375 142.847656 57.953125 142.617188 C 56.796875 142.386719 55.648438 142.128906 54.503906 141.84375 C 53.363281 141.554688 52.226562 141.242188 51.097656 140.898438 C 49.972656 140.558594 48.851562 140.1875 47.742188 139.792969 C 46.632812 139.394531 45.535156 138.96875 44.445312 138.519531 C 43.359375 138.070312 42.28125 137.589844 41.214844 137.085938 C 40.152344 136.582031 39.097656 136.054688 38.058594 135.5 C 37.019531 134.941406 35.996094 134.363281 34.984375 133.757812 C 33.972656 133.152344 32.980469 132.519531 32 131.867188 C 31.019531 131.210938 30.054688 130.53125 29.109375 129.832031 C 28.164062 129.128906 27.234375 128.402344 26.324219 127.65625 C 25.414062 126.910156 24.519531 126.140625 23.648438 125.347656 C 22.773438 124.558594 21.921875 123.746094 21.089844 122.910156 C 20.253906 122.078125 19.441406 121.226562 18.652344 120.351562 C 17.859375 119.480469 17.089844 118.585938 16.34375 117.675781 C 15.597656 116.765625 14.871094 115.835938 14.167969 114.890625 C 13.46875 113.945312 12.789062 112.980469 12.132812 112 C 11.480469 111.019531 10.847656 110.027344 10.242188 109.015625 C 9.636719 108.003906 9.058594 106.980469 8.5 105.941406 C 7.945312 104.902344 7.417969 103.847656 6.914062 102.785156 C 6.410156 101.71875 5.929688 100.640625 5.480469 99.554688 C 5.03125 98.464844 4.605469 97.367188 4.207031 96.257812 C 3.8125 95.148438 3.441406 94.027344 3.101562 92.902344 C 2.757812 91.773438 2.445312 90.636719 2.15625 89.496094 C 1.871094 88.351562 1.613281 87.203125 1.382812 86.046875 C 1.152344 84.890625 0.953125 83.730469 0.777344 82.566406 C 0.605469 81.398438 0.460938 80.230469 0.347656 79.058594 C 0.230469 77.882812 0.144531 76.710938 0.0859375 75.53125 C 0.0273438 74.355469 0 73.179688 0 72 C 0 70.820312 0.0273438 69.644531 0.0859375 68.46875 C 0.144531 67.289062 0.230469 66.117188 0.347656 64.941406 C 0.460938 63.769531 0.605469 62.601562 0.777344 61.433594 C 0.953125 60.269531 1.152344 59.109375 1.382812 57.953125 C 1.613281 56.796875 1.871094 55.648438 2.15625 54.503906 C 2.445312 53.363281 2.757812 52.226562 3.101562 51.097656 C 3.441406 49.972656 3.8125 48.851562 4.207031 47.742188 C 4.605469 46.632812 5.03125 45.535156 5.480469 44.445312 C 5.929688 43.359375 6.410156 42.28125 6.914062 41.214844 C 7.417969 40.152344 7.945312 39.097656 8.5 38.058594 C 9.058594 37.019531 9.636719 35.996094 10.242188 34.984375 C 10.847656 33.972656 11.480469 32.980469 12.132812 32 C 12.789062 31.019531 13.46875 30.054688 14.167969 29.109375 C 14.871094 28.164062 15.597656 27.234375 16.34375 26.324219 C 17.089844 25.414062 17.859375 24.519531 18.652344 23.648438 C 19.441406 22.773438 20.253906 21.921875 21.089844 21.089844 C 21.921875 20.253906 22.773438 19.441406 23.648438 18.652344 C 24.519531 17.859375 25.414062 17.089844 26.324219 16.34375 C 27.234375 15.597656 28.164062 14.871094 29.109375 14.167969 C 30.054688 13.46875 31.019531 12.789062 32 12.132812 C 32.980469 11.480469 33.972656 10.847656 34.984375 10.242188 C 35.996094 9.636719 37.019531 9.058594 38.058594 8.5 C 39.097656 7.945312 40.152344 7.417969 41.214844 6.914062 C 42.28125 6.410156 43.359375 5.929688 44.445312 5.480469 C 45.535156 5.03125 46.632812 4.605469 47.742188 4.207031 C 48.851562 3.8125 49.972656 3.441406 51.097656 3.101562 C 52.226562 2.757812 53.363281 2.445312 54.503906 2.15625 C 55.648438 1.871094 56.796875 1.613281 57.953125 1.382812 C 59.109375 1.152344 60.269531 0.953125 61.433594 0.777344 C 62.601562 0.605469 63.769531 0.460938 64.941406 0.347656 C 66.117188 0.230469 67.289062 0.144531 68.46875 0.0859375 C 69.644531 0.0273438 70.820312 0 72 0 C 73.179688 0 74.355469 0.0273438 75.53125 0.0859375 C 76.710938 0.144531 77.882812 0.230469 79.058594 0.347656 C 80.230469 0.460938 81.398438 0.605469 82.566406 0.777344 C 83.730469 0.953125 84.890625 1.152344 86.046875 1.382812 C 87.203125 1.613281 88.351562 1.871094 89.496094 2.15625 C 90.636719 2.445312 91.773438 2.757812 92.902344 3.101562 C 94.027344 3.441406 95.148438 3.8125 96.257812 4.207031 C 97.367188 4.605469 98.464844 5.03125 99.554688 5.480469 C 100.640625 5.929688 101.71875 6.410156 102.785156 6.914062 C 103.847656 7.417969 104.902344 7.945312 105.941406 8.5 C 106.980469 9.058594 108.003906 9.636719 109.015625 10.242188 C 110.027344 10.847656 111.019531 11.480469 112 12.132812 C 112.980469 12.789062 113.945312 13.46875 114.890625 14.167969 C 115.835938 14.871094 116.765625 15.597656 117.675781 16.34375 C 118.585938 17.089844 119.480469 17.859375 120.351562 18.652344 C 121.226562 19.441406 122.078125 20.253906 122.910156 21.089844 C 123.746094 21.921875 124.558594 22.773438 125.347656 23.648438 C 126.140625 24.519531 126.910156 25.414062 127.65625 26.324219 C 128.402344 27.234375 129.128906 28.164062 129.832031 29.109375 C 130.53125 30.054688 131.210938 31.019531 131.867188 32 C 132.519531 32.980469 133.152344 33.972656 133.757812 34.984375 C 134.363281 35.996094 134.941406 37.019531 135.5 38.058594 C 136.054688 39.097656 136.582031 40.152344 137.085938 41.214844 C 137.589844 42.28125 138.070312 43.359375 138.519531 44.445312 C 138.96875 45.535156 139.394531 46.632812 139.792969 47.742188 C 140.1875 48.851562 140.558594 49.972656 140.898438 51.097656 C 141.242188 52.226562 141.554688 53.363281 141.84375 54.503906 C 142.128906 55.648438 142.386719 56.796875 142.617188 57.953125 C 142.847656 59.109375 143.046875 60.269531 143.21875 61.433594 C 143.394531 62.601562 143.539062 63.769531 143.652344 64.941406 C 143.769531 66.117188 143.855469 67.289062 143.914062 68.46875 C 143.972656 69.644531 144 70.820312 144 72 Z M 144 72 " fill-opacity="1" fill-rule="nonzero"/><path fill="#15d675" d="M 39.539062 80.589844 C 40.292969 80.101562 41.050781 79.5625 41.753906 79.023438 C 50.285156 72.972656 58.386719 67.246094 70.433594 74.214844 C 71.136719 74.214844 72 74.214844 72.917969 74.160156 C 78.804688 73.945312 87.664062 73.621094 91.714844 77.726562 C 92.632812 78.644531 93.226562 79.722656 93.550781 81.019531 C 89.390625 84.476562 78.75 85.828125 73.621094 86.3125 C 73.242188 86.367188 72.917969 86.746094 72.972656 87.125 C 73.027344 87.5 73.351562 87.824219 73.726562 87.773438 C 79.347656 87.179688 91.605469 85.558594 95.496094 80.695312 C 95.710938 80.480469 95.875 80.210938 96.035156 79.941406 C 101.546875 75.996094 108.835938 71.027344 113.96875 72.539062 C 115.804688 73.082031 117.15625 74.375 117.964844 76.484375 C 118.179688 76.96875 118.019531 77.617188 117.535156 77.941406 C 113.375 80.804688 109.703125 83.503906 106.460938 85.933594 C 90.582031 97.765625 82.53125 103.761719 56.011719 96.738281 L 50.773438 99.816406 Z M 39.539062 80.589844 " fill-opacity="1" fill-rule="evenodd"/><path fill="#15d675" d="M 91.445312 75.835938 C 94.902344 73.621094 99.707031 70.59375 103.597656 71.515625 C 104.40625 71.730469 105.109375 72.054688 105.703125 72.539062 C 101.816406 74.269531 97.980469 77.023438 95.28125 78.914062 L 95.0625 79.074219 L 94.902344 79.347656 C 94.792969 79.507812 94.6875 79.722656 94.523438 79.886719 C 94.144531 78.75 93.496094 77.726562 92.632812 76.859375 C 92.253906 76.484375 91.878906 76.160156 91.445312 75.835938 Z M 91.445312 75.835938 " fill-opacity="1" fill-rule="evenodd"/><path fill="#15d675" d="M 40.996094 109.808594 C 40.5625 109.808594 40.132812 109.59375 39.914062 109.214844 L 26.140625 85.613281 C 25.980469 85.339844 25.925781 85.015625 25.980469 84.691406 C 26.089844 84.367188 26.304688 84.097656 26.574219 83.9375 L 35.539062 78.699219 C 36.136719 78.375 36.890625 78.535156 37.214844 79.128906 L 50.988281 102.679688 C 51.203125 103.003906 51.203125 103.328125 51.152344 103.652344 C 51.042969 103.921875 50.878906 104.191406 50.554688 104.355469 L 41.589844 109.648438 C 41.375 109.753906 41.210938 109.808594 40.996094 109.808594 Z M 40.996094 109.808594 " fill-opacity="1" fill-rule="evenodd"/><path fill="#15d675" d="M 80.640625 71.785156 C 80.316406 71.785156 80.046875 71.675781 79.777344 71.460938 C 70.972656 62.65625 61.898438 53.527344 61.898438 44.238281 C 61.898438 38.726562 66.382812 34.246094 71.890625 34.246094 C 76.214844 34.246094 78.699219 36.296875 80.640625 39.484375 C 82.640625 36.296875 85.070312 34.246094 89.445312 34.246094 C 94.957031 34.246094 99.4375 38.726562 99.4375 44.238281 C 99.4375 53.527344 90.3125 62.65625 81.507812 71.460938 C 81.289062 71.675781 80.964844 71.785156 80.640625 71.785156 Z M 80.640625 71.785156 " fill-opacity="1" fill-rule="evenodd"/></svg>