<svg xmlns="http://www.w3.org/2000/svg" xmlns:xlink="http://www.w3.org/1999/xlink" width="500" zoomAndPan="magnify" viewBox="0 0 375 374.999991" height="500" preserveAspectRatio="xMidYMid meet" version="1.0"><defs><clipPath id="d23be7c7bf"><path d="M 12.460938 53.179688 L 362.710938 53.179688 L 362.710938 321.679688 L 12.460938 321.679688 Z M 12.460938 53.179688 " clip-rule="nonzero"/></clipPath></defs><g clip-path="url(#d23be7c7bf)"><path fill="#414042" d="M 113.554688 148.539062 C 107.113281 145.703125 100.582031 141.84375 94.375 137.277344 C 93.941406 137.640625 93.5 138.003906 93.039062 138.375 C 92.925781 138.464844 92.8125 138.558594 92.699219 138.648438 C 92.136719 139.097656 91.558594 139.554688 90.957031 140.015625 C 90.894531 140.066406 90.828125 140.113281 90.765625 140.164062 C 90.152344 140.632812 89.519531 141.109375 88.867188 141.589844 C 88.828125 141.617188 88.785156 141.648438 88.746094 141.675781 C 88.089844 142.15625 87.414062 142.644531 86.71875 143.132812 C 85.203125 144.195312 83.839844 145.070312 82.539062 145.785156 C 78.640625 147.929688 75.332031 148.632812 70.402344 148.632812 C 70.347656 148.632812 70.292969 148.632812 70.238281 148.632812 C 70.082031 148.632812 69.917969 148.632812 69.746094 148.628906 C 69.710938 148.628906 69.675781 148.628906 69.636719 148.628906 C 69.492188 148.628906 69.339844 148.625 69.179688 148.621094 C 69.152344 148.621094 69.125 148.621094 69.097656 148.621094 C 68.722656 148.613281 68.324219 148.605469 67.90625 148.59375 C 67.847656 148.59375 67.785156 148.589844 67.722656 148.589844 C 67.582031 148.585938 67.433594 148.582031 67.285156 148.574219 C 67.101562 148.570312 66.90625 148.5625 66.710938 148.558594 C 66.648438 148.554688 66.582031 148.550781 66.515625 148.550781 C 66.347656 148.542969 66.171875 148.539062 65.996094 148.53125 C 65.992188 148.53125 65.988281 148.53125 65.984375 148.53125 C 65.558594 148.515625 65.121094 148.5 64.660156 148.480469 L 63.816406 148.445312 C 63.816406 148.445312 63.730469 148.441406 63.730469 148.441406 L 62.59375 148.386719 C 65.996094 168.550781 67.242188 196.597656 67.253906 196.882812 C 67.253906 196.886719 67.25 196.890625 67.25 196.894531 C 67.25 196.898438 67.253906 196.902344 67.253906 196.90625 L 67.253906 251.554688 C 67.253906 251.867188 67 252.121094 66.6875 252.121094 L 59.078125 252.121094 L 59.078125 296.636719 C 59.078125 296.640625 59.082031 296.640625 59.082031 296.644531 C 59.089844 296.660156 59.101562 296.675781 59.109375 296.695312 C 59.117188 296.707031 59.125 296.71875 59.132812 296.730469 C 59.144531 296.75 59.15625 296.769531 59.167969 296.789062 C 59.175781 296.804688 59.1875 296.820312 59.199219 296.839844 C 59.214844 296.859375 59.226562 296.878906 59.242188 296.902344 C 59.253906 296.921875 59.269531 296.945312 59.285156 296.96875 C 59.300781 296.992188 59.316406 297.011719 59.335938 297.039062 C 59.351562 297.0625 59.371094 297.089844 59.390625 297.117188 C 59.410156 297.144531 59.425781 297.167969 59.445312 297.191406 C 59.472656 297.226562 59.5 297.265625 59.527344 297.304688 C 59.542969 297.324219 59.558594 297.34375 59.574219 297.363281 C 59.621094 297.425781 59.671875 297.488281 59.726562 297.554688 C 59.738281 297.570312 59.753906 297.585938 59.765625 297.601562 C 59.808594 297.652344 59.851562 297.703125 59.898438 297.757812 C 59.921875 297.785156 59.945312 297.8125 59.96875 297.835938 C 60.007812 297.882812 60.050781 297.929688 60.09375 297.980469 C 60.125 298.011719 60.152344 298.042969 60.179688 298.074219 C 60.226562 298.121094 60.269531 298.167969 60.316406 298.214844 C 60.347656 298.25 60.382812 298.285156 60.417969 298.320312 C 60.464844 298.367188 60.511719 298.414062 60.558594 298.464844 C 60.597656 298.5 60.636719 298.539062 60.675781 298.574219 C 60.726562 298.625 60.777344 298.671875 60.832031 298.722656 C 60.871094 298.761719 60.914062 298.800781 60.957031 298.839844 C 61.015625 298.890625 61.070312 298.941406 61.128906 298.996094 C 61.175781 299.035156 61.222656 299.078125 61.269531 299.117188 C 61.328125 299.171875 61.390625 299.222656 61.457031 299.277344 C 61.503906 299.320312 61.554688 299.359375 61.605469 299.402344 C 61.671875 299.457031 61.742188 299.515625 61.8125 299.570312 C 61.867188 299.613281 61.917969 299.652344 61.972656 299.695312 C 62.046875 299.753906 62.125 299.8125 62.203125 299.871094 C 62.257812 299.914062 62.3125 299.957031 62.371094 300 C 62.453125 300.0625 62.542969 300.125 62.632812 300.1875 C 62.6875 300.226562 62.738281 300.265625 62.796875 300.304688 C 62.910156 300.382812 63.027344 300.460938 63.144531 300.542969 C 63.179688 300.566406 63.21875 300.59375 63.253906 300.617188 C 63.414062 300.722656 63.574219 300.828125 63.746094 300.933594 C 63.796875 300.960938 63.847656 300.996094 63.898438 301.027344 C 64.023438 301.101562 64.144531 301.175781 64.269531 301.25 C 64.339844 301.292969 64.414062 301.332031 64.484375 301.375 C 64.597656 301.441406 64.710938 301.507812 64.832031 301.570312 C 64.914062 301.617188 64.996094 301.664062 65.078125 301.707031 C 65.195312 301.769531 65.308594 301.832031 65.425781 301.894531 C 65.515625 301.941406 65.609375 301.988281 65.703125 302.035156 C 65.820312 302.097656 65.9375 302.15625 66.058594 302.21875 C 66.15625 302.265625 66.257812 302.3125 66.355469 302.359375 C 66.480469 302.421875 66.605469 302.480469 66.734375 302.539062 C 66.835938 302.585938 66.941406 302.636719 67.046875 302.683594 C 67.175781 302.742188 67.308594 302.800781 67.445312 302.859375 C 67.554688 302.90625 67.664062 302.957031 67.777344 303.003906 C 67.914062 303.0625 68.054688 303.121094 68.199219 303.179688 C 68.3125 303.226562 68.425781 303.273438 68.542969 303.320312 C 68.691406 303.378906 68.847656 303.4375 69 303.496094 C 69.117188 303.542969 69.230469 303.585938 69.351562 303.632812 C 69.515625 303.691406 69.6875 303.753906 69.855469 303.8125 C 69.972656 303.855469 70.085938 303.894531 70.203125 303.9375 C 70.394531 304.003906 70.59375 304.070312 70.789062 304.132812 C 70.890625 304.167969 70.992188 304.203125 71.09375 304.234375 C 71.398438 304.335938 71.710938 304.433594 72.03125 304.527344 C 72.539062 304.679688 73.027344 304.835938 73.503906 304.996094 C 73.605469 305.03125 73.710938 305.066406 73.8125 305.101562 C 74.242188 305.25 74.660156 305.398438 75.0625 305.550781 C 75.207031 305.605469 75.351562 305.664062 75.496094 305.71875 C 75.640625 305.773438 75.78125 305.832031 75.921875 305.886719 C 75.925781 305.890625 75.929688 305.886719 75.933594 305.890625 C 75.933594 305.890625 75.9375 305.894531 75.941406 305.894531 C 76.070312 305.949219 76.199219 306 76.328125 306.054688 C 76.609375 306.171875 76.886719 306.292969 77.15625 306.414062 C 77.292969 306.476562 77.429688 306.539062 77.5625 306.601562 C 89.664062 312.195312 88.769531 320.363281 88.652344 321.148438 C 88.648438 321.171875 88.644531 321.191406 88.644531 321.199219 C 88.597656 321.46875 88.363281 321.667969 88.085938 321.667969 L 33.445312 321.667969 C 33.132812 321.667969 32.878906 321.417969 32.878906 321.101562 L 32.878906 252.117188 L 25.5625 252.117188 C 25.269531 252.117188 25.023438 251.894531 25 251.601562 L 20.335938 196.957031 C 20.289062 196.523438 17.273438 166.175781 19.121094 144.167969 C 20.105469 132.46875 22.683594 125.546875 27.199219 122.53125 L 26.699219 117.820312 C 26.382812 117.457031 25.429688 116.359375 24.261719 114.847656 C 23.683594 115.074219 23.074219 115.191406 22.449219 115.191406 C 19.695312 115.191406 17.457031 112.953125 17.457031 110.203125 C 17.457031 109.539062 17.589844 108.890625 17.839844 108.289062 C 15.171875 108.191406 13.035156 105.992188 13.035156 103.300781 C 13.035156 101.492188 14.003906 99.902344 15.453125 99.027344 C 13.691406 98.257812 12.460938 96.496094 12.460938 94.453125 C 12.460938 91.703125 14.699219 89.464844 17.449219 89.464844 C 17.523438 89.464844 17.597656 89.464844 17.671875 89.46875 C 17.164062 88.683594 16.882812 87.753906 16.882812 86.773438 C 16.882812 84.023438 19.121094 81.785156 21.875 81.785156 C 23.082031 81.785156 24.226562 82.230469 25.117188 82.992188 C 25.113281 82.902344 25.113281 82.816406 25.113281 82.726562 C 25.113281 79.976562 27.347656 77.738281 30.101562 77.738281 C 32.160156 77.738281 33.917969 78.960938 34.679688 80.742188 C 35.398438 78.859375 37.21875 77.519531 39.347656 77.519531 C 42.074219 77.519531 44.300781 79.722656 44.335938 82.441406 C 45.082031 82.011719 45.933594 81.785156 46.816406 81.785156 C 49.566406 81.785156 51.804688 84.023438 51.804688 86.773438 C 51.804688 87.933594 51.398438 89.0625 50.660156 89.953125 C 50.65625 89.957031 50.652344 89.960938 50.648438 89.96875 C 50.636719 89.980469 50.617188 90 50.605469 90.015625 C 50.097656 90.621094 49.429688 91.085938 48.675781 91.386719 C 48.945312 92.324219 49.082031 93.277344 49.207031 94.207031 C 49.378906 95.5 49.546875 96.722656 50.054688 97.851562 C 50.542969 98.921875 51.835938 100.054688 52.976562 101.054688 C 54.199219 102.125 55.167969 102.96875 55.359375 103.816406 C 55.671875 105.171875 53.609375 107.007812 52.636719 107.785156 C 52.78125 108.929688 53.246094 112.742188 53.140625 114.207031 C 52.992188 116.316406 49.9375 117.753906 47.128906 118.398438 C 46.941406 118.441406 46.710938 118.484375 46.421875 118.53125 C 46.527344 119.53125 46.640625 120.613281 46.746094 121.675781 C 46.890625 121.691406 47.035156 121.710938 47.175781 121.726562 L 47.417969 121.75 C 48.101562 121.832031 48.792969 121.910156 49.480469 121.996094 L 50.546875 122.125 L 51.820312 122.285156 L 53.015625 122.433594 C 53.722656 122.523438 54.421875 122.613281 55.121094 122.703125 L 55.269531 122.722656 C 55.980469 122.816406 56.683594 122.910156 57.378906 123 C 65.539062 124.097656 72.558594 125.183594 73.878906 125.390625 L 77.9375 122.605469 C 77.605469 122.242188 77.261719 121.882812 76.933594 121.515625 C 65.671875 108.992188 59.179688 95.742188 58.652344 84.207031 C 58.652344 84.207031 58.644531 84.105469 58.644531 84.101562 C 58.625 83.613281 58.609375 83.125 58.609375 82.640625 C 58.609375 66.460938 71.113281 53.296875 86.480469 53.296875 C 99.929688 53.296875 111.183594 63.378906 113.785156 76.746094 C 116.382812 63.378906 127.636719 53.296875 141.085938 53.296875 C 156.453125 53.296875 168.957031 66.460938 168.957031 82.640625 C 168.957031 83.125 168.941406 83.613281 168.921875 84.101562 L 168.914062 84.214844 C 168.386719 95.742188 161.894531 108.992188 150.632812 121.519531 C 140.335938 132.972656 126.988281 142.820312 114.011719 148.539062 C 113.9375 148.570312 113.859375 148.589844 113.785156 148.589844 C 113.707031 148.589844 113.628906 148.570312 113.554688 148.539062 Z M 241.175781 210.507812 L 241.171875 210.503906 C 241.164062 210.492188 241.152344 210.484375 241.140625 210.472656 C 241.125 210.457031 241.109375 210.441406 241.09375 210.425781 C 241.070312 210.40625 241.050781 210.386719 241.023438 210.371094 C 241.007812 210.363281 240.992188 210.355469 240.972656 210.347656 C 240.957031 210.339844 240.941406 210.328125 240.925781 210.320312 C 240.894531 210.308594 240.863281 210.304688 240.835938 210.296875 C 240.820312 210.296875 240.8125 210.289062 240.800781 210.285156 C 240.789062 210.285156 240.78125 210.289062 240.769531 210.289062 C 240.753906 210.285156 240.738281 210.28125 240.722656 210.28125 L 156.097656 210.28125 C 156.058594 210.28125 156.023438 210.289062 155.984375 210.296875 C 155.964844 210.300781 155.945312 210.300781 155.925781 210.308594 C 155.863281 210.328125 155.804688 210.355469 155.753906 210.394531 L 122.234375 236.03125 C 122.183594 236.070312 122.140625 236.117188 122.109375 236.171875 C 122.105469 236.175781 122.101562 236.175781 122.101562 236.179688 L 99.160156 272.640625 C 99.011719 272.878906 99.058594 273.1875 99.269531 273.371094 C 99.375 273.460938 99.507812 273.507812 99.640625 273.507812 C 99.769531 273.507812 99.898438 273.460938 100.003906 273.375 L 122.015625 254.699219 L 122.015625 321.105469 C 122.015625 321.417969 122.265625 321.667969 122.578125 321.667969 L 207.203125 321.667969 C 207.273438 321.667969 207.34375 321.652344 207.40625 321.628906 C 207.429688 321.621094 207.449219 321.605469 207.46875 321.59375 C 207.496094 321.582031 207.523438 321.570312 207.546875 321.554688 L 241.066406 295.917969 C 241.207031 295.8125 241.289062 295.644531 241.289062 295.46875 L 241.289062 266.015625 L 267.328125 246.101562 C 267.574219 245.910156 267.621094 245.558594 267.4375 245.3125 Z M 362.105469 148.378906 C 360.890625 132.210938 337.761719 100.863281 318.691406 89.535156 C 314.597656 87.101562 309.015625 86.144531 303.375 86.902344 C 298.238281 87.59375 294 89.554688 292.3125 92.019531 C 289.925781 95.511719 289.839844 99.90625 289.835938 100.089844 C 289.714844 101.285156 289.847656 102.464844 289.976562 103.605469 C 290.125 104.902344 290.265625 106.125 290.050781 107.34375 C 289.839844 108.503906 288.867188 109.921875 288.003906 111.167969 C 287.082031 112.507812 286.351562 113.566406 286.371094 114.433594 C 286.40625 115.824219 288.855469 117.097656 289.988281 117.609375 C 290.128906 118.753906 290.617188 122.566406 291.078125 123.960938 C 291.738281 125.964844 295.054688 126.609375 297.9375 126.542969 C 298.125 126.539062 298.363281 126.527344 298.652344 126.5 C 298.902344 128.246094 299.203125 130.253906 299.453125 131.933594 C 299.0625 132.214844 298.679688 132.511719 298.320312 132.835938 C 296.570312 134.125 294.378906 135.703125 291.996094 137.402344 C 291.960938 137.425781 291.925781 137.449219 291.894531 137.472656 C 291.589844 137.6875 291.285156 137.90625 290.972656 138.125 C 290.875 138.195312 290.777344 138.265625 290.679688 138.335938 C 290.425781 138.515625 290.171875 138.695312 289.917969 138.875 C 289.789062 138.96875 289.65625 139.058594 289.527344 139.152344 C 289.3125 139.304688 289.101562 139.453125 288.886719 139.605469 C 288.691406 139.742188 288.496094 139.882812 288.300781 140.019531 C 288.144531 140.128906 287.988281 140.242188 287.832031 140.351562 C 287.621094 140.5 287.410156 140.648438 287.199219 140.796875 C 287.050781 140.902344 286.902344 141.007812 286.753906 141.109375 C 286.523438 141.273438 286.292969 141.433594 286.066406 141.597656 C 285.941406 141.683594 285.820312 141.769531 285.699219 141.855469 C 285.464844 142.019531 285.230469 142.183594 284.996094 142.347656 C 284.871094 142.4375 284.746094 142.523438 284.621094 142.613281 C 284.375 142.785156 284.128906 142.957031 283.886719 143.125 C 283.785156 143.199219 283.683594 143.269531 283.582031 143.339844 C 283.300781 143.539062 283.019531 143.734375 282.742188 143.929688 C 282.695312 143.964844 282.644531 143.996094 282.597656 144.03125 C 282.289062 144.246094 281.980469 144.460938 281.675781 144.675781 C 281.644531 144.699219 281.613281 144.71875 281.582031 144.742188 C 281.28125 144.953125 280.984375 145.160156 280.691406 145.363281 C 280.644531 145.398438 280.597656 145.429688 280.550781 145.460938 C 279.226562 146.386719 277.96875 147.265625 276.824219 148.0625 C 280.449219 141.164062 282.507812 134.382812 282.796875 128.109375 L 282.800781 127.996094 C 282.824219 127.507812 282.835938 127.019531 282.835938 126.53125 C 282.835938 110.351562 270.335938 97.191406 254.96875 97.191406 C 241.519531 97.191406 230.261719 107.273438 227.664062 120.636719 C 225.066406 107.273438 213.8125 97.191406 200.359375 97.191406 C 184.992188 97.191406 172.492188 110.351562 172.492188 126.53125 C 172.492188 127.019531 172.507812 127.507812 172.527344 127.996094 C 172.527344 127.996094 172.527344 127.996094 172.527344 128 L 172.53125 128.101562 C 173.0625 139.632812 179.554688 152.882812 190.816406 165.410156 C 201.113281 176.863281 214.460938 186.714844 227.4375 192.433594 C 227.507812 192.464844 227.585938 192.480469 227.664062 192.480469 C 227.742188 192.480469 227.820312 192.464844 227.890625 192.433594 C 239.097656 187.496094 250.578125 179.472656 260.132812 169.996094 C 260.296875 170.101562 260.457031 170.195312 260.621094 170.296875 C 261.0625 170.578125 261.5 170.847656 261.925781 171.105469 C 261.988281 171.140625 262.050781 171.179688 262.113281 171.214844 C 262.425781 171.402344 262.734375 171.574219 263.039062 171.75 C 263.207031 171.84375 263.371094 171.9375 263.535156 172.027344 C 263.742188 172.140625 263.941406 172.246094 264.144531 172.351562 C 264.390625 172.484375 264.636719 172.613281 264.878906 172.734375 C 265.011719 172.804688 265.140625 172.867188 265.273438 172.929688 C 265.570312 173.078125 265.863281 173.222656 266.15625 173.355469 C 266.253906 173.398438 266.347656 173.441406 266.441406 173.484375 C 266.761719 173.625 267.074219 173.761719 267.382812 173.890625 C 267.46875 173.925781 267.554688 173.957031 267.640625 173.992188 C 267.953125 174.117188 268.261719 174.234375 268.5625 174.339844 C 268.65625 174.375 268.75 174.40625 268.839844 174.4375 C 269.132812 174.539062 269.417969 174.628906 269.703125 174.710938 C 269.804688 174.742188 269.90625 174.773438 270.007812 174.800781 C 270.28125 174.878906 270.542969 174.945312 270.804688 175.003906 C 270.914062 175.03125 271.027344 175.058594 271.132812 175.078125 C 271.394531 175.132812 271.648438 175.179688 271.902344 175.21875 C 272 175.234375 272.101562 175.253906 272.203125 175.265625 C 272.546875 175.3125 272.886719 175.347656 273.214844 175.363281 C 273.265625 175.363281 273.316406 175.363281 273.367188 175.363281 C 273.421875 175.363281 273.476562 175.359375 273.53125 175.359375 C 273.546875 175.355469 273.558594 175.355469 273.574219 175.355469 C 273.894531 175.339844 274.257812 175.285156 274.660156 175.195312 C 279.417969 174.203125 290.796875 168.960938 298.855469 163.890625 C 306.320312 181.050781 311.460938 195.949219 311.832031 197.027344 L 321.246094 296.65625 C 321.238281 296.671875 321.230469 296.6875 321.21875 296.707031 C 321.214844 296.710938 321.214844 296.714844 321.210938 296.714844 C 321.195312 296.742188 321.179688 296.769531 321.160156 296.796875 C 321.15625 296.804688 321.152344 296.8125 321.148438 296.820312 C 321.128906 296.851562 321.109375 296.878906 321.089844 296.910156 C 321.082031 296.921875 321.074219 296.933594 321.066406 296.945312 C 321.042969 296.976562 321.023438 297.011719 320.996094 297.046875 C 320.988281 297.058594 320.976562 297.074219 320.96875 297.085938 C 320.941406 297.121094 320.914062 297.160156 320.886719 297.199219 C 320.875 297.210938 320.867188 297.226562 320.855469 297.238281 C 320.753906 297.378906 320.625 297.539062 320.476562 297.710938 C 320.464844 297.726562 320.453125 297.738281 320.441406 297.753906 C 320.40625 297.796875 320.363281 297.839844 320.324219 297.886719 C 320.300781 297.914062 320.273438 297.945312 320.246094 297.972656 C 320.207031 298.015625 320.167969 298.058594 320.125 298.105469 C 320.09375 298.136719 320.0625 298.171875 320.027344 298.207031 C 319.984375 298.253906 319.941406 298.296875 319.898438 298.339844 C 319.859375 298.378906 319.824219 298.417969 319.785156 298.457031 C 319.738281 298.5 319.691406 298.546875 319.644531 298.589844 C 319.601562 298.632812 319.558594 298.675781 319.511719 298.71875 C 319.464844 298.761719 319.414062 298.808594 319.363281 298.855469 C 319.316406 298.898438 319.265625 298.941406 319.214844 298.988281 C 319.164062 299.035156 319.109375 299.082031 319.054688 299.128906 C 319.003906 299.175781 318.945312 299.222656 318.890625 299.269531 C 318.835938 299.316406 318.777344 299.363281 318.71875 299.414062 C 318.660156 299.460938 318.597656 299.511719 318.535156 299.558594 C 318.476562 299.609375 318.414062 299.65625 318.351562 299.703125 C 318.289062 299.757812 318.21875 299.808594 318.152344 299.859375 C 318.085938 299.90625 318.023438 299.957031 317.957031 300.003906 C 317.882812 300.058594 317.808594 300.113281 317.730469 300.167969 C 317.664062 300.214844 317.601562 300.261719 317.53125 300.308594 C 317.441406 300.375 317.347656 300.4375 317.25 300.5 C 317.191406 300.542969 317.136719 300.582031 317.074219 300.621094 C 316.917969 300.722656 316.757812 300.828125 316.589844 300.933594 C 316.535156 300.96875 316.472656 301.003906 316.414062 301.039062 C 316.296875 301.109375 316.183594 301.179688 316.066406 301.25 C 315.992188 301.292969 315.914062 301.339844 315.839844 301.382812 C 315.730469 301.445312 315.617188 301.507812 315.503906 301.574219 C 315.421875 301.617188 315.335938 301.664062 315.25 301.710938 C 315.136719 301.773438 315.023438 301.832031 314.910156 301.894531 C 314.816406 301.941406 314.726562 301.992188 314.632812 302.039062 C 314.515625 302.097656 314.394531 302.160156 314.273438 302.21875 C 314.175781 302.265625 314.078125 302.316406 313.976562 302.363281 C 313.855469 302.421875 313.730469 302.480469 313.601562 302.539062 C 313.5 302.589844 313.394531 302.636719 313.289062 302.683594 C 313.15625 302.746094 313.023438 302.804688 312.890625 302.863281 C 312.78125 302.910156 312.671875 302.957031 312.558594 303.003906 C 312.421875 303.066406 312.277344 303.125 312.132812 303.183594 C 312.019531 303.226562 311.90625 303.273438 311.789062 303.320312 C 311.640625 303.378906 311.488281 303.441406 311.332031 303.5 C 311.214844 303.542969 311.101562 303.589844 310.984375 303.632812 C 310.816406 303.695312 310.644531 303.753906 310.476562 303.816406 C 310.363281 303.855469 310.25 303.898438 310.132812 303.9375 C 309.941406 304.003906 309.742188 304.070312 309.542969 304.136719 C 309.441406 304.167969 309.34375 304.203125 309.242188 304.238281 C 308.9375 304.335938 308.625 304.433594 308.304688 304.527344 C 307.796875 304.679688 307.308594 304.839844 306.832031 305 C 306.730469 305.035156 306.625 305.066406 306.523438 305.101562 C 306.09375 305.25 305.675781 305.398438 305.273438 305.554688 C 305.128906 305.609375 304.984375 305.664062 304.84375 305.71875 C 304.699219 305.773438 304.554688 305.832031 304.410156 305.890625 C 304.410156 305.890625 304.40625 305.890625 304.402344 305.890625 C 304.402344 305.890625 304.398438 305.894531 304.398438 305.894531 C 304.265625 305.949219 304.132812 306.003906 304.003906 306.058594 C 303.726562 306.175781 303.453125 306.292969 303.1875 306.414062 C 303.046875 306.476562 302.90625 306.539062 302.769531 306.601562 C 290.582031 312.238281 291.578125 320.480469 291.683594 321.164062 C 291.6875 321.183594 291.691406 321.195312 291.691406 321.199219 C 291.738281 321.472656 291.972656 321.671875 292.246094 321.671875 L 346.886719 321.671875 C 347.199219 321.671875 347.453125 321.417969 347.453125 321.105469 L 347.453125 296.792969 C 347.546875 295.488281 352.363281 226.382812 351.980469 210.832031 C 351.589844 195.191406 350.03125 187.238281 350.015625 187.160156 C 350.011719 187.144531 350.003906 187.132812 350 187.121094 C 349.996094 187.109375 350 187.09375 349.996094 187.082031 C 349.941406 186.929688 346.71875 177.703125 341.945312 166.105469 C 344.933594 165.4375 348.015625 164.386719 351.054688 162.882812 C 358.496094 159.195312 362.523438 153.910156 362.105469 148.378906 Z M 362.105469 148.378906 " fill-opacity="1" fill-rule="nonzero"/></g><path fill="#15d675" d="M 167.824219 82.640625 C 167.824219 83.109375 167.8125 83.582031 167.792969 84.050781 L 167.785156 84.15625 C 167.269531 95.429688 160.878906 108.429688 149.792969 120.761719 C 139.660156 132.035156 126.546875 141.734375 113.785156 147.40625 C 107.566406 144.640625 101.265625 140.917969 95.269531 136.527344 C 101.839844 130.925781 105.1875 126.703125 105.683594 126.058594 C 106.707031 125.398438 115.523438 119.664062 119.691406 115.003906 L 119.9375 114.726562 C 121.703125 112.753906 123.707031 110.515625 125.394531 108.101562 C 127.179688 105.554688 128.023438 103.683594 127.949219 102.429688 C 127.941406 101.964844 127.820312 101.574219 127.570312 101.269531 C 127.210938 100.828125 126.621094 100.410156 125.699219 100.492188 C 126.035156 99.648438 126.183594 98.949219 126.148438 98.375 C 126.140625 97.875 126.007812 97.464844 125.734375 97.148438 C 125.3125 96.652344 124.605469 96.214844 123.484375 96.484375 C 123.621094 95.925781 123.664062 95.445312 123.605469 95.039062 C 123.5625 94.589844 123.414062 94.222656 123.15625 93.941406 C 122.738281 93.492188 122.230469 93.257812 121.636719 93.253906 C 120.9375 93.238281 120.132812 93.566406 119.207031 94.234375 C 119.421875 93.515625 119.492188 92.914062 119.425781 92.421875 C 119.382812 91.972656 119.234375 91.601562 118.972656 91.320312 C 118.558594 90.871094 118.046875 90.640625 117.457031 90.632812 C 116.273438 90.609375 114.832031 91.519531 113.011719 93.390625 C 110.789062 95.675781 106.878906 99.597656 104.753906 101.71875 C 104.929688 100.847656 105.117188 99.730469 105.257812 98.355469 C 105.292969 98.023438 105.292969 97.699219 105.265625 97.386719 C 105.207031 96.484375 104.910156 95.671875 104.417969 95.121094 C 104.027344 94.679688 103.53125 94.433594 103.027344 94.425781 C 103.019531 94.425781 103.007812 94.425781 103 94.425781 C 101.511719 94.425781 100.292969 96.328125 99.695312 97.464844 C 98.210938 100.292969 95.210938 106.601562 94.320312 109.046875 C 94.054688 109.773438 93.816406 110.496094 93.617188 111.203125 C 93.613281 111.214844 93.617188 111.230469 93.613281 111.242188 C 93.535156 111.515625 93.46875 111.769531 93.414062 111.980469 L 78.878906 121.960938 C 78.511719 121.5625 78.136719 121.164062 77.773438 120.761719 C 66.6875 108.429688 60.296875 95.429688 59.78125 84.15625 C 59.78125 84.152344 59.777344 84.101562 59.777344 84.097656 L 59.210938 84.078125 L 59.777344 84.054688 C 59.757812 83.582031 59.742188 83.109375 59.742188 82.640625 C 59.742188 67.085938 71.738281 54.429688 86.480469 54.429688 C 101.222656 54.429688 113.21875 67.085938 113.21875 82.640625 C 113.21875 82.953125 113.472656 83.207031 113.785156 83.207031 C 114.097656 83.207031 114.347656 82.953125 114.347656 82.640625 C 114.347656 67.085938 126.34375 54.429688 141.085938 54.429688 C 155.832031 54.429688 167.824219 67.085938 167.824219 82.640625 Z M 254.96875 98.320312 C 241.875 98.320312 230.957031 108.304688 228.675781 121.4375 C 228.777344 121.445312 228.878906 121.464844 228.980469 121.488281 C 229.007812 121.492188 229.035156 121.5 229.0625 121.507812 C 229.195312 121.542969 229.332031 121.585938 229.46875 121.644531 C 229.496094 121.65625 229.519531 121.667969 229.546875 121.679688 C 229.683594 121.738281 229.820312 121.808594 229.960938 121.886719 C 229.972656 121.894531 229.984375 121.902344 230 121.910156 C 230.148438 121.996094 230.300781 122.097656 230.453125 122.210938 C 230.484375 122.230469 230.515625 122.253906 230.546875 122.277344 C 230.691406 122.382812 230.832031 122.492188 230.980469 122.617188 C 230.9375 122.441406 230.90625 122.277344 230.878906 122.113281 C 230.875 122.113281 230.875 122.109375 230.875 122.105469 C 230.851562 121.960938 230.832031 121.816406 230.820312 121.679688 C 230.816406 121.640625 230.816406 121.605469 230.8125 121.566406 C 230.808594 121.46875 230.804688 121.371094 230.804688 121.28125 C 230.804688 121.234375 230.804688 121.1875 230.808594 121.140625 C 230.8125 121.0625 230.816406 120.988281 230.824219 120.914062 C 230.828125 120.867188 230.835938 120.820312 230.84375 120.773438 C 230.855469 120.707031 230.867188 120.640625 230.882812 120.578125 C 230.894531 120.535156 230.90625 120.492188 230.917969 120.449219 C 230.9375 120.386719 230.960938 120.332031 230.984375 120.273438 C 231 120.238281 231.015625 120.199219 231.035156 120.164062 C 231.0625 120.105469 231.097656 120.050781 231.132812 119.996094 C 231.152344 119.96875 231.167969 119.9375 231.1875 119.914062 C 231.246094 119.835938 231.308594 119.761719 231.378906 119.695312 C 231.824219 119.28125 232.355469 119.089844 232.941406 119.125 C 234.109375 119.195312 235.492188 120.203125 237.167969 122.203125 C 239.09375 124.503906 242.402344 128.355469 244.417969 130.699219 C 244.550781 130.855469 244.679688 131.003906 244.800781 131.144531 C 244.6875 130.253906 244.582031 129.082031 244.546875 127.648438 C 244.511719 126.398438 244.910156 125.246094 245.609375 124.570312 C 246.019531 124.175781 246.503906 123.96875 246.996094 123.980469 C 247.015625 123.984375 247.03125 123.976562 247.046875 123.980469 C 247.351562 123.996094 247.632812 124.09375 247.902344 124.246094 C 248.792969 124.75 249.484375 125.871094 249.925781 126.78125 C 250.007812 126.949219 250.082031 127.109375 250.148438 127.257812 C 251.417969 130.1875 253.9375 136.707031 254.644531 139.207031 C 254.722656 139.480469 254.789062 139.738281 254.855469 139.988281 C 254.859375 139.996094 254.859375 140.007812 254.863281 140.019531 C 255.058594 140.78125 255.195312 141.433594 255.289062 141.941406 L 271.023438 152.085938 C 271.597656 151.691406 272.941406 150.761719 274.75 149.503906 C 278.96875 142.074219 281.359375 134.753906 281.664062 128.046875 L 281.671875 127.941406 C 281.691406 127.472656 281.707031 127 281.707031 126.53125 C 281.707031 110.976562 269.710938 98.320312 254.96875 98.320312 Z M 241.089844 154.523438 C 241.082031 154.519531 241.074219 154.511719 241.066406 154.507812 C 240.980469 154.441406 240.890625 154.371094 240.796875 154.296875 C 240.78125 154.28125 240.765625 154.273438 240.75 154.261719 C 240.660156 154.1875 240.566406 154.117188 240.46875 154.039062 C 240.449219 154.019531 240.421875 154.003906 240.398438 153.984375 C 240.308594 153.910156 240.210938 153.835938 240.113281 153.753906 C 240.082031 153.730469 240.050781 153.707031 240.019531 153.683594 C 239.929688 153.609375 239.835938 153.535156 239.742188 153.457031 C 239.695312 153.421875 239.652344 153.386719 239.609375 153.351562 C 239.519531 153.28125 239.429688 153.207031 239.335938 153.132812 C 239.285156 153.089844 239.230469 153.046875 239.179688 153.003906 C 239.089844 152.929688 239 152.855469 238.90625 152.78125 C 238.847656 152.734375 238.789062 152.6875 238.730469 152.636719 C 238.636719 152.5625 238.546875 152.488281 238.453125 152.414062 C 238.390625 152.359375 238.324219 152.304688 238.261719 152.253906 C 238.167969 152.175781 238.074219 152.097656 237.980469 152.019531 C 237.914062 151.964844 237.847656 151.90625 237.777344 151.851562 C 237.6875 151.773438 237.59375 151.695312 237.5 151.617188 C 237.425781 151.554688 237.351562 151.492188 237.273438 151.429688 C 237.183594 151.351562 237.09375 151.273438 237 151.195312 C 236.921875 151.128906 236.84375 151.0625 236.761719 150.996094 C 236.671875 150.917969 236.582031 150.839844 236.492188 150.761719 C 236.410156 150.691406 236.324219 150.617188 236.242188 150.546875 C 236.152344 150.46875 236.0625 150.390625 235.972656 150.3125 C 235.886719 150.238281 235.800781 150.160156 235.714844 150.085938 C 235.625 150.007812 235.535156 149.929688 235.445312 149.847656 C 235.359375 149.773438 235.273438 149.695312 235.183594 149.617188 C 235.09375 149.539062 235.007812 149.457031 234.917969 149.378906 C 234.828125 149.296875 234.738281 149.214844 234.644531 149.132812 C 234.558594 149.054688 234.472656 148.976562 234.386719 148.898438 C 234.296875 148.8125 234.203125 148.730469 234.113281 148.648438 C 234.023438 148.566406 233.9375 148.484375 233.847656 148.402344 C 233.757812 148.320312 233.667969 148.238281 233.578125 148.152344 C 233.492188 148.070312 233.40625 147.988281 233.320312 147.90625 C 233.230469 147.824219 233.140625 147.738281 233.050781 147.652344 C 232.964844 147.570312 232.875 147.484375 232.789062 147.402344 C 232.703125 147.316406 232.617188 147.234375 232.53125 147.152344 C 232.445312 147.066406 232.359375 146.980469 232.273438 146.894531 C 232.1875 146.8125 232.101562 146.726562 232.019531 146.644531 C 231.933594 146.558594 231.851562 146.476562 231.765625 146.390625 C 231.683594 146.304688 231.601562 146.222656 231.519531 146.140625 C 231.433594 146.054688 231.351562 145.964844 231.269531 145.878906 C 231.191406 145.796875 231.109375 145.714844 231.03125 145.632812 C 230.953125 145.546875 230.875 145.460938 230.792969 145.378906 C 230.714844 145.292969 230.636719 145.210938 230.5625 145.125 C 230.480469 145.039062 230.402344 144.949219 230.320312 144.859375 C 230.25 144.78125 230.179688 144.703125 230.113281 144.625 C 230.027344 144.53125 229.949219 144.441406 229.867188 144.34375 C 229.804688 144.273438 229.742188 144.199219 229.679688 144.128906 C 229.59375 144.027344 229.511719 143.925781 229.425781 143.824219 C 229.375 143.761719 229.324219 143.699219 229.273438 143.640625 C 229.144531 143.476562 229.015625 143.316406 228.894531 143.15625 L 228.671875 142.867188 C 227.058594 140.761719 225.230469 138.375 223.726562 135.839844 C 221.617188 132.277344 221.074219 130.035156 222.066406 128.976562 C 222.109375 128.933594 222.15625 128.886719 222.207031 128.84375 C 222.222656 128.828125 222.238281 128.816406 222.253906 128.804688 C 222.292969 128.769531 222.335938 128.734375 222.378906 128.703125 C 222.394531 128.691406 222.40625 128.679688 222.421875 128.671875 C 222.476562 128.632812 222.535156 128.597656 222.59375 128.5625 C 222.613281 128.550781 222.636719 128.539062 222.660156 128.527344 C 222.707031 128.503906 222.753906 128.484375 222.800781 128.460938 C 222.824219 128.453125 222.847656 128.441406 222.871094 128.433594 C 222.941406 128.40625 223.011719 128.382812 223.085938 128.367188 C 223.109375 128.359375 223.128906 128.359375 223.148438 128.351562 C 223.210938 128.339844 223.277344 128.328125 223.34375 128.320312 C 223.367188 128.320312 223.394531 128.316406 223.421875 128.3125 C 223.507812 128.308594 223.597656 128.304688 223.695312 128.308594 C 223.703125 128.308594 223.707031 128.308594 223.714844 128.308594 C 223.804688 128.3125 223.898438 128.324219 223.996094 128.339844 C 224.007812 128.34375 224.019531 128.34375 224.035156 128.34375 C 223.972656 128.152344 223.921875 127.96875 223.875 127.792969 C 223.867188 127.769531 223.863281 127.75 223.859375 127.726562 C 223.820312 127.582031 223.792969 127.4375 223.765625 127.300781 C 223.757812 127.261719 223.753906 127.226562 223.746094 127.1875 C 223.726562 127.066406 223.710938 126.945312 223.703125 126.832031 C 223.699219 126.796875 223.695312 126.761719 223.691406 126.726562 C 223.683594 126.585938 223.679688 126.453125 223.6875 126.324219 C 223.6875 126.296875 223.691406 126.269531 223.695312 126.242188 C 223.703125 126.144531 223.710938 126.054688 223.726562 125.964844 C 223.734375 125.921875 223.746094 125.878906 223.757812 125.835938 C 223.773438 125.765625 223.792969 125.699219 223.816406 125.636719 C 223.832031 125.59375 223.847656 125.554688 223.863281 125.515625 C 223.890625 125.453125 223.921875 125.390625 223.957031 125.332031 C 223.976562 125.300781 223.992188 125.269531 224.011719 125.242188 C 224.066406 125.15625 224.128906 125.078125 224.203125 125.003906 C 224.253906 124.953125 224.308594 124.90625 224.367188 124.855469 C 224.382812 124.84375 224.398438 124.832031 224.414062 124.820312 C 224.472656 124.773438 224.535156 124.726562 224.601562 124.683594 C 224.609375 124.679688 224.613281 124.679688 224.617188 124.675781 C 224.679688 124.636719 224.75 124.601562 224.820312 124.566406 C 224.839844 124.558594 224.855469 124.550781 224.875 124.542969 C 224.953125 124.507812 225.03125 124.476562 225.117188 124.453125 C 225.125 124.449219 225.132812 124.449219 225.144531 124.445312 C 225.222656 124.425781 225.304688 124.410156 225.394531 124.398438 C 225.414062 124.394531 225.433594 124.390625 225.453125 124.390625 C 225.550781 124.378906 225.648438 124.375 225.753906 124.378906 C 225.765625 124.378906 225.777344 124.378906 225.789062 124.378906 C 225.886719 124.382812 225.988281 124.398438 226.089844 124.414062 C 226.113281 124.417969 226.136719 124.421875 226.160156 124.425781 C 226.273438 124.449219 226.394531 124.480469 226.515625 124.519531 C 226.523438 124.519531 226.527344 124.523438 226.535156 124.523438 C 226.535156 124.523438 226.535156 124.523438 226.535156 124.519531 C 226.511719 124.40625 226.496094 124.300781 226.484375 124.195312 C 226.480469 124.15625 226.472656 124.117188 226.46875 124.078125 C 226.460938 124.007812 226.457031 123.941406 226.453125 123.871094 C 226.449219 123.804688 226.441406 123.738281 226.441406 123.675781 C 226.4375 123.636719 226.441406 123.605469 226.441406 123.570312 C 226.441406 123.480469 226.441406 123.394531 226.449219 123.3125 C 226.449219 123.300781 226.453125 123.289062 226.453125 123.277344 C 226.492188 122.871094 226.605469 122.535156 226.792969 122.265625 C 224.835938 108.726562 213.730469 98.324219 200.359375 98.324219 C 185.617188 98.324219 173.621094 110.980469 173.621094 126.535156 C 173.621094 127.003906 173.636719 127.476562 173.65625 127.945312 L 173.660156 128.042969 C 174.179688 139.324219 180.570312 152.324219 191.65625 164.65625 C 201.789062 175.929688 214.902344 185.628906 227.664062 191.300781 C 238.609375 186.4375 249.808594 178.605469 259.167969 169.367188 C 250.652344 163.707031 242.789062 155.996094 242.070312 155.28125 C 241.953125 155.1875 241.601562 154.925781 241.089844 154.523438 Z M 241.089844 154.523438 " fill-opacity="1" fill-rule="nonzero"/><path fill="#ffc98b" d="M 86.703125 316.324219 L 34.011719 316.324219 L 34.011719 297.339844 L 53.492188 297.339844 C 53.582031 298.09375 53.847656 299.488281 54.664062 300.839844 C 54.699219 300.894531 54.734375 300.957031 54.773438 301.03125 C 55.5 302.308594 57.707031 306.195312 68.34375 309.382812 C 70.246094 309.953125 72.015625 310.609375 73.601562 311.339844 C 73.675781 311.375 73.757812 311.390625 73.839844 311.390625 C 73.90625 311.390625 73.976562 311.378906 74.042969 311.351562 C 74.183594 311.296875 74.296875 311.1875 74.359375 311.046875 L 76.011719 307.148438 C 82.585938 309.925781 85.46875 313.464844 86.703125 316.324219 Z M 55.757812 300.472656 C 56.429688 301.652344 58.46875 305.242188 68.667969 308.300781 C 70.414062 308.824219 72.050781 309.417969 73.542969 310.074219 L 74.964844 306.722656 C 73.960938 306.335938 72.875 305.960938 71.707031 305.613281 C 62.015625 302.707031 58.902344 298.542969 58.175781 297.34375 L 54.636719 297.34375 C 54.726562 298.011719 54.972656 299.160156 55.632812 300.253906 C 55.671875 300.316406 55.710938 300.390625 55.757812 300.472656 Z M 34.011719 317.453125 L 34.011719 320.539062 L 87.566406 320.539062 C 87.589844 319.945312 87.546875 318.832031 87.121094 317.453125 Z M 122.015625 253.214844 L 122.015625 238.441406 L 102.074219 270.136719 Z M 233.464844 271.851562 C 233.441406 271.851562 233.414062 271.847656 233.390625 271.847656 C 233.238281 271.824219 233.105469 271.746094 233.015625 271.625 L 207.769531 238.167969 L 207.769531 319.960938 L 240.15625 295.191406 L 240.15625 266.878906 L 233.808594 271.734375 C 233.710938 271.8125 233.589844 271.851562 233.464844 271.851562 Z M 123.144531 320.539062 L 206.636719 320.539062 L 206.636719 237.046875 L 123.144531 237.046875 Z M 207.992188 236.585938 L 233.574219 270.492188 L 266.195312 245.542969 L 240.613281 211.640625 Z M 326.84375 297.339844 C 326.753906 298.09375 326.488281 299.488281 325.671875 300.839844 C 325.636719 300.894531 325.601562 300.957031 325.5625 301.03125 C 324.835938 302.308594 322.628906 306.195312 311.992188 309.382812 C 310.085938 309.953125 308.316406 310.609375 306.734375 311.339844 C 306.660156 311.375 306.578125 311.390625 306.496094 311.390625 C 306.429688 311.390625 306.359375 311.378906 306.292969 311.351562 C 306.152344 311.296875 306.035156 311.1875 305.976562 311.046875 L 304.324219 307.148438 C 297.75 309.925781 294.867188 313.464844 293.632812 316.324219 L 346.324219 316.324219 L 346.324219 297.339844 Z M 311.667969 308.300781 C 321.871094 305.242188 323.910156 301.652344 324.578125 300.472656 C 324.625 300.390625 324.667969 300.316406 324.703125 300.253906 C 325.367188 299.160156 325.609375 298.007812 325.703125 297.339844 L 322.160156 297.339844 C 321.4375 298.542969 318.324219 302.707031 308.628906 305.613281 C 307.460938 305.960938 306.378906 306.335938 305.371094 306.722656 L 306.792969 310.074219 C 308.285156 309.417969 309.921875 308.824219 311.667969 308.300781 Z M 292.769531 320.539062 L 346.324219 320.539062 L 346.324219 317.453125 L 293.214844 317.453125 C 292.789062 318.832031 292.75 319.945312 292.769531 320.539062 Z M 292.769531 320.539062 " fill-opacity="1" fill-rule="nonzero"/><path fill="#f9eee4" d="M 34.011719 252.121094 L 57.945312 252.121094 L 57.945312 296.210938 L 34.011719 296.210938 Z M 126.691406 102.097656 C 126.542969 101.914062 126.148438 101.441406 124.933594 101.980469 C 124.609375 102.582031 124.21875 103.226562 123.757812 103.925781 C 122.085938 106.472656 118.414062 110.8125 118.257812 110.996094 C 118.148438 111.128906 117.988281 111.195312 117.828125 111.195312 C 117.699219 111.195312 117.566406 111.152344 117.460938 111.0625 C 117.222656 110.859375 117.195312 110.503906 117.394531 110.265625 C 117.433594 110.222656 121.179688 105.792969 122.8125 103.304688 C 124.402344 100.886719 124.992188 99.34375 125.027344 98.511719 C 125.019531 98.207031 124.9375 98.058594 124.882812 97.996094 C 124.714844 97.800781 124.269531 97.292969 122.882812 98.054688 C 122.527344 98.863281 122.042969 99.769531 121.425781 100.785156 C 119.84375 103.398438 115.800781 108.226562 115.628906 108.433594 C 115.519531 108.566406 115.359375 108.632812 115.195312 108.632812 C 115.070312 108.632812 114.941406 108.589844 114.835938 108.5 C 114.59375 108.300781 114.5625 107.945312 114.765625 107.707031 C 114.804688 107.65625 118.921875 102.738281 120.460938 100.199219 C 121.960938 97.722656 122.492188 96.160156 122.496094 95.324219 C 122.476562 95.039062 122.398438 94.886719 122.332031 94.816406 C 122.132812 94.597656 121.910156 94.496094 121.632812 94.488281 C 121.070312 94.476562 119.972656 94.890625 118.019531 96.894531 C 118 96.910156 117.976562 96.917969 117.957031 96.9375 C 117.742188 97.328125 117.507812 97.738281 117.246094 98.167969 C 115.667969 100.773438 112.328125 105.027344 112.1875 105.207031 C 111.996094 105.453125 111.640625 105.492188 111.394531 105.300781 C 111.148438 105.109375 111.105469 104.753906 111.296875 104.507812 C 111.332031 104.464844 114.738281 100.128906 116.28125 97.582031 C 117.867188 94.960938 118.371094 93.363281 118.308594 92.570312 C 118.277344 92.359375 118.207031 92.246094 118.15625 92.191406 C 117.957031 91.972656 117.734375 91.867188 117.457031 91.863281 C 116.882812 91.875 115.792969 92.269531 113.835938 94.277344 C 110.679688 97.507812 104.144531 104.003906 104.082031 104.070312 C 103.894531 104.253906 103.605469 104.285156 103.382812 104.148438 C 103.199219 104.03125 103.109375 103.832031 103.125 103.625 C 103.117188 103.550781 103.125 103.476562 103.148438 103.402344 C 103.15625 103.382812 103.78125 101.535156 104.125 98.15625 C 104.152344 97.894531 104.152344 97.652344 104.132812 97.425781 C 104.070312 96.742188 103.828125 96.234375 103.582031 95.953125 C 103.402344 95.75 103.203125 95.640625 103.019531 95.636719 C 103.015625 95.636719 103.011719 95.636719 103.007812 95.636719 C 102.382812 95.636719 101.480469 96.589844 100.699219 98.070312 C 99.226562 100.867188 96.25 107.101562 95.371094 109.503906 C 94.902344 110.78125 94.613281 111.816406 94.457031 112.460938 C 94.421875 112.59375 94.34375 112.710938 94.226562 112.789062 L 82.238281 121.023438 L 94.546875 135.65625 C 101.285156 129.917969 104.558594 125.671875 104.820312 125.324219 C 104.863281 125.230469 104.925781 125.140625 105.023438 125.078125 C 105.117188 125.015625 114.640625 118.882812 118.863281 114.148438 L 119.109375 113.875 C 120.851562 111.917969 122.828125 109.703125 124.476562 107.34375 C 126.152344 104.945312 126.78125 103.410156 126.828125 102.582031 C 126.824219 102.367188 126.777344 102.203125 126.691406 102.097656 Z M 35.757812 120.675781 C 35.8125 120.660156 35.867188 120.65625 35.925781 120.65625 C 36.199219 120.675781 36.476562 120.695312 36.761719 120.714844 L 40.800781 121.054688 C 40.800781 121.054688 40.859375 121.058594 40.859375 121.058594 L 45.597656 121.5625 C 45.476562 120.382812 45.355469 119.183594 45.242188 118.117188 C 45.210938 117.8125 45.421875 117.539062 45.722656 117.496094 C 46.230469 117.425781 46.617188 117.355469 46.875 117.296875 C 49.816406 116.625 51.929688 115.320312 52.011719 114.128906 C 52.125 112.546875 51.480469 107.664062 51.472656 107.613281 C 51.449219 107.414062 51.53125 107.214844 51.691406 107.089844 C 53.003906 106.089844 54.378906 104.601562 54.257812 104.070312 C 54.144531 103.582031 53.128906 102.691406 52.230469 101.90625 C 51.003906 100.832031 49.609375 99.613281 49.023438 98.316406 C 48.445312 97.039062 48.261719 95.675781 48.085938 94.359375 C 47.964844 93.464844 47.84375 92.609375 47.613281 91.785156 C 43.554688 93.324219 37.039062 94.152344 35.410156 94.339844 L 33.738281 99.476562 C 33.679688 99.652344 33.539062 99.789062 33.363281 99.84375 C 33.183594 99.898438 32.992188 99.859375 32.847656 99.742188 C 31.816406 98.917969 30.171875 98.042969 28.183594 98.554688 C 27.019531 98.855469 26.121094 99.613281 25.65625 100.6875 C 25.027344 102.152344 25.242188 104.042969 26.25 105.875 C 27.167969 107.535156 28.988281 108.96875 29.992188 109.675781 C 30.195312 109.820312 30.28125 110.078125 30.207031 110.3125 L 27.816406 117.644531 L 28.269531 121.914062 C 30.101562 121.003906 32.738281 120.5625 35.757812 120.675781 Z M 313.859375 107.730469 C 313.398438 106.65625 312.5 105.898438 311.332031 105.59375 C 310.234375 105.3125 309.121094 105.425781 308.027344 105.933594 C 307.867188 106.007812 307.679688 106.003906 307.523438 105.917969 C 307.367188 105.835938 307.257812 105.683594 307.230469 105.507812 C 307.023438 104.144531 306.871094 103.101562 306.777344 102.464844 C 305.277344 103.054688 301.558594 104.273438 297.410156 103.777344 C 294.050781 103.378906 292.007812 102.210938 290.925781 101.371094 C 290.945312 102.058594 291.019531 102.753906 291.101562 103.476562 C 291.253906 104.796875 291.410156 106.164062 291.160156 107.542969 C 290.910156 108.945312 289.859375 110.46875 288.933594 111.8125 C 288.257812 112.792969 287.492188 113.90625 287.503906 114.40625 C 287.515625 114.949219 289.214844 116.054688 290.734375 116.703125 C 290.917969 116.785156 291.050781 116.957031 291.074219 117.160156 C 291.078125 117.207031 291.652344 122.101562 292.148438 123.609375 C 292.523438 124.742188 294.882812 125.476562 297.910156 125.414062 C 298.171875 125.410156 298.566406 125.378906 299.074219 125.324219 C 299.09375 125.324219 299.113281 125.320312 299.132812 125.320312 C 299.410156 125.320312 299.652344 125.527344 299.691406 125.808594 C 299.9375 127.5 300.234375 129.519531 300.496094 131.269531 C 300.953125 131.003906 301.425781 130.757812 301.917969 130.550781 C 305.167969 129.183594 307.832031 128.601562 311.183594 128.65625 C 310.453125 124.84375 309.769531 121.027344 309.148438 117.378906 C 309.109375 117.160156 309.203125 116.941406 309.382812 116.816406 C 310.429688 116.097656 312.320312 114.632812 313.265625 112.914062 C 314.277344 111.085938 314.492188 109.195312 313.859375 107.730469 Z M 254.167969 142.101562 C 254.148438 141.984375 254.121094 141.859375 254.097656 141.730469 C 254.09375 141.714844 254.089844 141.703125 254.089844 141.691406 C 254.058594 141.546875 254.027344 141.394531 253.992188 141.234375 C 253.988281 141.21875 253.984375 141.203125 253.980469 141.1875 C 253.953125 141.054688 253.917969 140.910156 253.882812 140.765625 C 253.871094 140.714844 253.859375 140.667969 253.847656 140.617188 C 253.820312 140.492188 253.785156 140.363281 253.753906 140.234375 C 253.738281 140.179688 253.726562 140.128906 253.710938 140.074219 C 253.664062 139.894531 253.613281 139.707031 253.558594 139.515625 C 252.863281 137.054688 250.371094 130.609375 249.113281 127.707031 C 248.441406 126.164062 247.609375 125.144531 246.984375 125.105469 C 246.796875 125.09375 246.59375 125.191406 246.398438 125.378906 C 246.03125 125.734375 245.648438 126.511719 245.679688 127.617188 C 245.769531 131.011719 246.253906 132.902344 246.261719 132.921875 C 246.328125 133.175781 246.210938 133.441406 245.976562 133.566406 C 245.746094 133.6875 245.457031 133.632812 245.285156 133.433594 C 245.226562 133.367188 239.203125 126.394531 236.304688 122.929688 C 234.503906 120.78125 233.445312 120.285156 232.875 120.25 C 232.601562 120.230469 232.367188 120.320312 232.152344 120.523438 C 232.128906 120.542969 232.109375 120.570312 232.089844 120.597656 C 231.992188 120.738281 231.878906 121.042969 231.953125 121.679688 C 231.957031 121.699219 231.957031 121.714844 231.960938 121.734375 C 231.96875 121.800781 231.980469 121.871094 231.992188 121.945312 C 232 121.984375 232.007812 122.027344 232.015625 122.066406 C 232.027344 122.125 232.039062 122.1875 232.054688 122.253906 C 232.066406 122.3125 232.082031 122.375 232.097656 122.4375 C 232.113281 122.492188 232.128906 122.546875 232.144531 122.605469 C 232.164062 122.675781 232.183594 122.75 232.207031 122.828125 C 232.226562 122.886719 232.242188 122.945312 232.261719 123.011719 C 232.285156 123.085938 232.3125 123.164062 232.339844 123.242188 C 232.363281 123.316406 232.390625 123.390625 232.417969 123.46875 C 232.445312 123.539062 232.472656 123.613281 232.5 123.6875 C 232.535156 123.78125 232.570312 123.875 232.609375 123.976562 C 232.636719 124.042969 232.667969 124.113281 232.695312 124.1875 C 232.742188 124.292969 232.785156 124.40625 232.835938 124.519531 C 233.046875 125.011719 233.296875 125.546875 233.597656 126.136719 C 234.949219 128.792969 238.019531 133.371094 238.050781 133.417969 C 238.226562 133.675781 238.15625 134.027344 237.898438 134.199219 C 237.636719 134.375 237.285156 134.304688 237.113281 134.046875 C 236.984375 133.855469 233.96875 129.367188 232.589844 126.652344 C 232.324219 126.125 232.089844 125.632812 231.882812 125.164062 C 230.785156 123.863281 229.96875 123.183594 229.371094 122.847656 C 229.359375 122.84375 229.351562 122.839844 229.34375 122.832031 C 229.234375 122.773438 229.128906 122.722656 229.03125 122.683594 C 229.023438 122.679688 229.015625 122.675781 229.007812 122.671875 C 228.964844 122.65625 228.925781 122.640625 228.882812 122.628906 C 228.875 122.625 228.867188 122.621094 228.855469 122.621094 C 228.820312 122.609375 228.78125 122.597656 228.746094 122.589844 C 228.742188 122.585938 228.738281 122.585938 228.734375 122.585938 C 228.652344 122.566406 228.578125 122.554688 228.507812 122.550781 C 228.507812 122.550781 228.507812 122.550781 228.503906 122.550781 C 228.234375 122.535156 228.003906 122.621094 227.785156 122.824219 C 227.761719 122.847656 227.738281 122.875 227.71875 122.90625 C 227.5625 123.140625 227.398438 123.773438 227.9375 125.417969 C 227.9375 125.417969 227.9375 125.421875 227.9375 125.421875 C 228.199219 126.226562 228.617188 127.222656 229.234375 128.441406 C 230.578125 131.085938 234.316406 136.296875 234.355469 136.347656 C 234.539062 136.601562 234.480469 136.953125 234.226562 137.136719 C 234.128906 137.207031 234.011719 137.242188 233.898438 137.242188 C 233.722656 137.242188 233.550781 137.160156 233.4375 137.007812 C 233.285156 136.789062 229.609375 131.675781 228.226562 128.953125 C 227.65625 127.824219 227.222656 126.832031 226.925781 125.964844 C 225.648438 125.160156 225.183594 125.621094 225.003906 125.800781 C 224.980469 125.824219 224.960938 125.855469 224.941406 125.882812 C 224.78125 126.144531 224.597656 126.925781 225.53125 129.097656 C 225.53125 129.101562 225.53125 129.105469 225.535156 129.109375 C 225.8125 129.753906 226.179688 130.503906 226.65625 131.359375 C 228.101562 133.964844 231.507812 138.65625 231.542969 138.703125 C 231.726562 138.957031 231.667969 139.3125 231.417969 139.496094 C 231.316406 139.566406 231.199219 139.601562 231.085938 139.601562 C 230.910156 139.601562 230.738281 139.523438 230.628906 139.371094 C 230.484375 139.175781 227.148438 134.574219 225.667969 131.910156 C 225.230469 131.117188 224.867188 130.394531 224.574219 129.734375 C 223.464844 129.164062 223.046875 129.585938 222.886719 129.753906 C 222.457031 130.210938 222.707031 131.898438 224.699219 135.261719 C 225.433594 136.5 226.25 137.710938 227.085938 138.871094 C 227.921875 140.027344 228.769531 141.136719 229.566406 142.175781 L 229.789062 142.46875 C 229.90625 142.617188 230.023438 142.769531 230.148438 142.921875 C 230.1875 142.96875 230.226562 143.015625 230.265625 143.066406 C 230.351562 143.171875 230.441406 143.277344 230.53125 143.382812 C 230.578125 143.4375 230.628906 143.496094 230.679688 143.554688 C 230.761719 143.652344 230.851562 143.753906 230.9375 143.851562 C 230.992188 143.910156 231.042969 143.972656 231.097656 144.03125 C 231.1875 144.132812 231.277344 144.234375 231.371094 144.332031 C 231.425781 144.390625 231.476562 144.449219 231.53125 144.507812 C 231.628906 144.613281 231.730469 144.71875 231.828125 144.824219 C 231.878906 144.878906 231.929688 144.929688 231.980469 144.984375 C 232.09375 145.101562 232.207031 145.21875 232.324219 145.335938 C 232.363281 145.378906 232.402344 145.421875 232.445312 145.464844 C 232.589844 145.609375 232.734375 145.757812 232.882812 145.90625 C 232.898438 145.917969 232.910156 145.929688 232.921875 145.945312 C 233.257812 146.277344 233.597656 146.605469 233.941406 146.933594 C 233.96875 146.960938 233.996094 146.984375 234.023438 147.011719 C 234.167969 147.144531 234.308594 147.28125 234.453125 147.414062 C 234.492188 147.453125 234.53125 147.488281 234.574219 147.523438 C 234.707031 147.648438 234.839844 147.773438 234.976562 147.898438 C 235.015625 147.933594 235.058594 147.972656 235.101562 148.011719 C 235.234375 148.132812 235.371094 148.253906 235.503906 148.378906 C 235.542969 148.414062 235.582031 148.449219 235.621094 148.480469 C 235.769531 148.613281 235.914062 148.742188 236.058594 148.871094 C 236.085938 148.894531 236.109375 148.917969 236.132812 148.9375 C 236.300781 149.085938 236.46875 149.234375 236.636719 149.378906 C 236.640625 149.382812 236.644531 149.386719 236.648438 149.390625 C 237.175781 149.851562 237.699219 150.296875 238.199219 150.71875 C 238.210938 150.730469 238.222656 150.738281 238.230469 150.746094 C 238.382812 150.871094 238.527344 150.996094 238.671875 151.117188 C 238.699219 151.140625 238.730469 151.164062 238.753906 151.183594 C 238.886719 151.292969 239.015625 151.402344 239.140625 151.503906 C 239.171875 151.527344 239.199219 151.554688 239.230469 151.578125 C 239.355469 151.679688 239.476562 151.78125 239.597656 151.878906 C 239.625 151.902344 239.652344 151.921875 239.675781 151.945312 C 239.804688 152.046875 239.929688 152.148438 240.050781 152.246094 C 240.066406 152.261719 240.085938 152.273438 240.101562 152.289062 C 240.519531 152.628906 240.902344 152.933594 241.242188 153.203125 C 241.265625 153.21875 241.285156 153.234375 241.304688 153.25 C 241.386719 153.316406 241.46875 153.378906 241.542969 153.441406 C 241.589844 153.472656 241.628906 153.507812 241.671875 153.539062 C 241.722656 153.578125 241.769531 153.617188 241.816406 153.652344 C 241.867188 153.691406 241.914062 153.730469 241.960938 153.765625 C 241.996094 153.792969 242.027344 153.816406 242.058594 153.84375 C 242.105469 153.878906 242.148438 153.914062 242.191406 153.945312 C 242.21875 153.964844 242.246094 153.984375 242.269531 154.003906 C 242.3125 154.035156 242.351562 154.070312 242.386719 154.097656 L 254.195312 142.246094 C 254.1875 142.210938 254.183594 142.175781 254.175781 142.136719 C 254.171875 142.128906 254.171875 142.113281 254.167969 142.101562 Z M 254.167969 142.101562 " fill-opacity="1" fill-rule="nonzero"/><path fill="#c9f3f4" d="M 81.300781 121.667969 L 93.683594 136.386719 C 91.289062 138.382812 88.726562 140.339844 86.066406 142.207031 C 80.121094 146.382812 76.691406 147.53125 70.242188 147.503906 C 68.902344 147.496094 67.042969 147.445312 64.707031 147.351562 L 63.863281 147.316406 L 63.839844 147.878906 L 63.777344 147.308594 L 61.941406 147.226562 C 61.769531 147.222656 61.605469 147.289062 61.492188 147.417969 C 61.378906 147.546875 61.332031 147.71875 61.359375 147.886719 C 64.5625 166.417969 65.894531 192.136719 66.097656 196.339844 L 21.410156 196.339844 C 21.023438 192.265625 18.535156 164.652344 20.25 144.261719 C 21.257812 132.257812 23.910156 125.503906 28.59375 123.007812 C 30.285156 122.105469 32.867188 121.683594 35.863281 121.808594 C 35.914062 121.808594 35.960938 121.804688 36.007812 121.796875 C 36.230469 121.808594 36.453125 121.824219 36.679688 121.84375 L 40.6875 122.179688 C 40.691406 122.179688 40.746094 122.183594 40.75 122.183594 L 47.289062 122.875 C 47.972656 122.953125 48.660156 123.035156 49.347656 123.117188 L 52.875 123.554688 C 53.578125 123.644531 54.277344 123.734375 54.988281 123.828125 L 55.125 123.84375 C 55.832031 123.9375 56.535156 124.03125 57.277344 124.128906 C 66.238281 125.332031 73.851562 126.53125 73.925781 126.542969 C 74.066406 126.566406 74.214844 126.535156 74.332031 126.453125 Z M 340.824219 166.335938 C 338.46875 166.789062 336.183594 167.003906 334.042969 167.003906 C 328.667969 167.003906 324.1875 165.675781 321.722656 163.484375 C 318.113281 160.277344 314.386719 145.210938 311.398438 129.785156 C 308.089844 129.699219 305.5625 130.242188 302.359375 131.589844 C 301.132812 132.109375 300.019531 132.816406 299.050781 133.695312 C 299.039062 133.710938 299.023438 133.722656 299.007812 133.734375 C 290.535156 139.976562 271.550781 153.097656 271.359375 153.230469 C 271.171875 153.363281 270.921875 153.363281 270.730469 153.242188 L 254.964844 143.078125 L 243.242188 154.84375 C 246.09375 157.597656 263.242188 173.757812 273.265625 174.234375 C 276.125 174.371094 289.53125 168.523438 298.804688 162.585938 C 298.894531 162.527344 299.003906 162.496094 299.109375 162.496094 C 299.164062 162.496094 299.21875 162.503906 299.273438 162.519531 C 299.429688 162.570312 299.5625 162.683594 299.628906 162.835938 C 306.71875 179.066406 311.773438 193.414062 312.75 196.230469 L 348.726562 186.878906 C 347.941406 184.664062 344.953125 176.371094 340.824219 166.335938 Z M 340.824219 166.335938 " fill-opacity="1" fill-rule="nonzero"/></svg>