<svg xmlns="http://www.w3.org/2000/svg" xmlns:xlink="http://www.w3.org/1999/xlink" width="180" zoomAndPan="magnify" viewBox="0 0 135 187.499995" height="250" preserveAspectRatio="xMidYMid meet" version="1.0"><defs><clipPath id="065b2b545c"><path d="M 11.097656 94 L 124 94 L 124 184.617188 L 11.097656 184.617188 Z M 11.097656 94 " clip-rule="nonzero"/></clipPath><clipPath id="704a4231b6"><path d="M 1.777344 1.71875 L 133.976562 1.71875 L 133.976562 133.914062 L 1.777344 133.914062 Z M 1.777344 1.71875 " clip-rule="nonzero"/></clipPath><clipPath id="55c9efed88"><path d="M 14.621094 14.558594 L 120.378906 14.558594 L 120.378906 120.316406 L 14.621094 120.316406 Z M 14.621094 14.558594 " clip-rule="nonzero"/></clipPath></defs><g clip-path="url(#065b2b545c)"><path fill="#15d675" d="M 68.039062 184.96875 C 71.65625 184.792969 74.777344 182.382812 76.667969 179.414062 C 91.625 156.019531 106.597656 132.632812 121.546875 109.230469 C 123.324219 106.527344 124.40625 103.089844 123.40625 99.898438 C 122.292969 95.996094 118.054688 93.964844 114.222656 94.117188 C 83.136719 94.082031 52.054688 94.089844 20.96875 94.0625 C 17.585938 94.019531 13.835938 95.441406 12.277344 98.640625 C 10.5625 101.957031 11.585938 105.964844 13.507812 108.957031 C 28.417969 132.367188 43.34375 155.777344 58.257812 179.183594 C 60.292969 182.53125 63.964844 185.261719 68.039062 184.96875 Z M 68.039062 184.96875 " fill-opacity="1" fill-rule="nonzero"/></g><g clip-path="url(#704a4231b6)"><path fill="#15d675" d="M 34.328125 1.71875 L 100.660156 1.71875 C 101.726562 1.71875 102.789062 1.769531 103.851562 1.875 C 104.914062 1.980469 105.964844 2.136719 107.011719 2.34375 C 108.058594 2.550781 109.089844 2.808594 110.109375 3.117188 C 111.128906 3.429688 112.132812 3.789062 113.117188 4.195312 C 114.101562 4.601562 115.0625 5.058594 116.003906 5.5625 C 116.945312 6.0625 117.859375 6.609375 118.742188 7.203125 C 119.628906 7.796875 120.484375 8.429688 121.308594 9.105469 C 122.132812 9.78125 122.921875 10.496094 123.675781 11.25 C 124.429688 12.003906 125.144531 12.792969 125.820312 13.617188 C 126.496094 14.441406 127.132812 15.296875 127.722656 16.183594 C 128.316406 17.070312 128.863281 17.984375 129.367188 18.921875 C 129.867188 19.863281 130.324219 20.824219 130.730469 21.808594 C 131.140625 22.792969 131.5 23.796875 131.808594 24.816406 C 132.117188 25.835938 132.375 26.871094 132.582031 27.914062 C 132.792969 28.960938 132.949219 30.015625 133.050781 31.074219 C 133.15625 32.136719 133.210938 33.199219 133.210938 34.265625 L 133.210938 100.601562 C 133.210938 101.667969 133.15625 102.730469 133.050781 103.789062 C 132.949219 104.851562 132.792969 105.90625 132.582031 106.949219 C 132.375 107.996094 132.117188 109.027344 131.808594 110.046875 C 131.5 111.070312 131.140625 112.070312 130.730469 113.054688 C 130.324219 114.039062 129.867188 115.003906 129.367188 115.941406 C 128.863281 116.882812 128.316406 117.796875 127.722656 118.683594 C 127.132812 119.570312 126.496094 120.425781 125.820312 121.25 C 125.144531 122.074219 124.429688 122.863281 123.675781 123.613281 C 122.921875 124.367188 122.132812 125.082031 121.308594 125.761719 C 120.484375 126.4375 119.628906 127.070312 118.742188 127.664062 C 117.859375 128.253906 116.945312 128.800781 116.003906 129.304688 C 115.0625 129.808594 114.101562 130.261719 113.117188 130.671875 C 112.132812 131.078125 111.128906 131.4375 110.109375 131.746094 C 109.089844 132.054688 108.058594 132.316406 107.011719 132.523438 C 105.964844 132.730469 104.914062 132.886719 103.851562 132.992188 C 102.789062 133.097656 101.726562 133.148438 100.660156 133.148438 L 34.328125 133.148438 C 33.261719 133.148438 32.199219 133.097656 31.136719 132.992188 C 30.074219 132.886719 29.023438 132.730469 27.976562 132.523438 C 26.929688 132.316406 25.898438 132.054688 24.878906 131.746094 C 23.859375 131.4375 22.855469 131.078125 21.871094 130.671875 C 20.886719 130.261719 19.925781 129.808594 18.984375 129.304688 C 18.042969 128.800781 17.128906 128.253906 16.242188 127.664062 C 15.359375 127.070312 14.503906 126.4375 13.679688 125.761719 C 12.855469 125.082031 12.066406 124.367188 11.3125 123.613281 C 10.558594 122.863281 9.84375 122.074219 9.167969 121.25 C 8.492188 120.425781 7.855469 119.570312 7.265625 118.683594 C 6.671875 117.796875 6.125 116.882812 5.621094 115.941406 C 5.121094 115.003906 4.664062 114.039062 4.257812 113.054688 C 3.847656 112.070312 3.488281 111.070312 3.179688 110.046875 C 2.871094 109.027344 2.613281 107.996094 2.402344 106.949219 C 2.195312 105.90625 2.039062 104.851562 1.933594 103.789062 C 1.832031 102.730469 1.777344 101.667969 1.777344 100.601562 L 1.777344 34.265625 C 1.777344 33.199219 1.832031 32.136719 1.933594 31.074219 C 2.039062 30.015625 2.195312 28.960938 2.402344 27.914062 C 2.613281 26.871094 2.871094 25.835938 3.179688 24.816406 C 3.488281 23.796875 3.847656 22.792969 4.257812 21.808594 C 4.664062 20.824219 5.121094 19.863281 5.621094 18.921875 C 6.125 17.984375 6.671875 17.070312 7.265625 16.183594 C 7.855469 15.296875 8.492188 14.441406 9.167969 13.617188 C 9.84375 12.792969 10.558594 12.003906 11.3125 11.25 C 12.066406 10.496094 12.855469 9.78125 13.679688 9.105469 C 14.503906 8.429688 15.359375 7.796875 16.242188 7.203125 C 17.128906 6.609375 18.042969 6.0625 18.984375 5.5625 C 19.925781 5.058594 20.886719 4.601562 21.871094 4.195312 C 22.855469 3.789062 23.859375 3.429688 24.878906 3.117188 C 25.898438 2.808594 26.929688 2.550781 27.976562 2.34375 C 29.023438 2.136719 30.074219 1.980469 31.136719 1.875 C 32.199219 1.769531 33.261719 1.71875 34.328125 1.71875 Z M 34.328125 1.71875 " fill-opacity="1" fill-rule="nonzero"/></g><g clip-path="url(#55c9efed88)"><path fill="#ffffff" d="M 120.378906 67.4375 C 120.378906 69.171875 120.292969 70.898438 120.125 72.621094 C 119.953125 74.34375 119.699219 76.054688 119.363281 77.753906 C 119.023438 79.453125 118.605469 81.132812 118.101562 82.789062 C 117.597656 84.445312 117.015625 86.074219 116.355469 87.675781 C 115.691406 89.273438 114.953125 90.839844 114.136719 92.367188 C 113.320312 93.894531 112.429688 95.375 111.46875 96.816406 C 110.503906 98.257812 109.476562 99.644531 108.375 100.984375 C 107.277344 102.324219 106.117188 103.605469 104.890625 104.828125 C 103.667969 106.054688 102.386719 107.214844 101.046875 108.316406 C 99.707031 109.414062 98.316406 110.445312 96.878906 111.40625 C 95.4375 112.367188 93.953125 113.257812 92.425781 114.074219 C 90.898438 114.890625 89.335938 115.628906 87.734375 116.292969 C 86.136719 116.957031 84.507812 117.539062 82.851562 118.039062 C 81.191406 118.542969 79.515625 118.964844 77.816406 119.300781 C 76.117188 119.640625 74.40625 119.894531 72.683594 120.0625 C 70.960938 120.234375 69.230469 120.316406 67.5 120.316406 C 65.769531 120.316406 64.039062 120.234375 62.316406 120.0625 C 60.59375 119.894531 58.882812 119.640625 57.183594 119.300781 C 55.484375 118.964844 53.808594 118.542969 52.148438 118.039062 C 50.492188 117.539062 48.863281 116.957031 47.265625 116.292969 C 45.664062 115.628906 44.101562 114.890625 42.574219 114.074219 C 41.046875 113.257812 39.5625 112.367188 38.121094 111.40625 C 36.683594 110.445312 35.292969 109.414062 33.953125 108.316406 C 32.613281 107.214844 31.332031 106.054688 30.109375 104.828125 C 28.882812 103.605469 27.722656 102.324219 26.625 100.984375 C 25.523438 99.644531 24.496094 98.257812 23.53125 96.816406 C 22.570312 95.375 21.679688 93.894531 20.863281 92.367188 C 20.046875 90.839844 19.308594 89.273438 18.644531 87.675781 C 17.984375 86.074219 17.402344 84.445312 16.898438 82.789062 C 16.394531 81.132812 15.976562 79.453125 15.636719 77.753906 C 15.300781 76.054688 15.046875 74.34375 14.875 72.621094 C 14.707031 70.898438 14.621094 69.171875 14.621094 67.4375 C 14.621094 65.707031 14.707031 63.980469 14.875 62.253906 C 15.046875 60.53125 15.300781 58.820312 15.636719 57.121094 C 15.976562 55.425781 16.394531 53.746094 16.898438 52.089844 C 17.402344 50.429688 17.984375 48.804688 18.644531 47.203125 C 19.308594 45.601562 20.046875 44.039062 20.863281 42.511719 C 21.679688 40.984375 22.570312 39.5 23.53125 38.0625 C 24.496094 36.621094 25.523438 35.230469 26.625 33.894531 C 27.722656 32.554688 28.882812 31.273438 30.109375 30.046875 C 31.332031 28.824219 32.613281 27.660156 33.953125 26.5625 C 35.292969 25.464844 36.683594 24.433594 38.121094 23.472656 C 39.5625 22.507812 41.046875 21.621094 42.574219 20.804688 C 44.101562 19.988281 45.664062 19.246094 47.265625 18.585938 C 48.863281 17.921875 50.492188 17.339844 52.148438 16.835938 C 53.808594 16.332031 55.484375 15.914062 57.183594 15.574219 C 58.882812 15.238281 60.59375 14.984375 62.316406 14.8125 C 64.039062 14.644531 65.769531 14.558594 67.5 14.558594 C 69.230469 14.558594 70.960938 14.644531 72.683594 14.8125 C 74.40625 14.984375 76.117188 15.238281 77.816406 15.574219 C 79.515625 15.914062 81.191406 16.332031 82.851562 16.835938 C 84.507812 17.339844 86.136719 17.921875 87.734375 18.585938 C 89.335938 19.246094 90.898438 19.988281 92.425781 20.804688 C 93.953125 21.621094 95.4375 22.507812 96.878906 23.472656 C 98.316406 24.433594 99.707031 25.464844 101.046875 26.5625 C 102.386719 27.660156 103.667969 28.824219 104.890625 30.046875 C 106.117188 31.273438 107.277344 32.554688 108.375 33.894531 C 109.476562 35.230469 110.503906 36.621094 111.46875 38.0625 C 112.429688 39.5 113.320312 40.984375 114.136719 42.511719 C 114.953125 44.039062 115.691406 45.601562 116.355469 47.203125 C 117.015625 48.804688 117.597656 50.429688 118.101562 52.089844 C 118.605469 53.746094 119.023438 55.425781 119.363281 57.121094 C 119.699219 58.820312 119.953125 60.53125 120.125 62.253906 C 120.292969 63.980469 120.378906 65.707031 120.378906 67.4375 Z M 120.378906 67.4375 " fill-opacity="1" fill-rule="nonzero"/></g><path fill="#15d675" d="M 43.660156 73.746094 C 44.214844 73.390625 44.769531 72.992188 45.285156 72.597656 C 51.554688 68.152344 57.503906 63.949219 66.347656 69.066406 C 66.867188 69.066406 67.5 69.066406 68.175781 69.027344 C 72.5 68.867188 79.003906 68.628906 81.980469 71.644531 C 82.652344 72.316406 83.089844 73.113281 83.328125 74.0625 C 80.273438 76.601562 72.457031 77.59375 68.691406 77.949219 C 68.414062 77.992188 68.175781 78.269531 68.214844 78.546875 C 68.253906 78.824219 68.492188 79.0625 68.769531 79.023438 C 72.894531 78.585938 81.898438 77.394531 84.757812 73.824219 C 84.914062 73.667969 85.035156 73.46875 85.152344 73.269531 C 89.199219 70.375 94.554688 66.726562 98.324219 67.835938 C 99.671875 68.230469 100.664062 69.183594 101.257812 70.730469 C 101.417969 71.089844 101.296875 71.5625 100.941406 71.800781 C 97.886719 73.90625 95.1875 75.886719 92.808594 77.671875 C 81.144531 86.359375 75.234375 90.765625 55.757812 85.605469 L 51.910156 87.867188 Z M 43.660156 73.746094 " fill-opacity="1" fill-rule="evenodd"/><path fill="#15d675" d="M 81.78125 70.253906 C 84.320312 68.628906 87.851562 66.40625 90.707031 67.082031 C 91.300781 67.242188 91.816406 67.476562 92.253906 67.835938 C 89.398438 69.105469 86.582031 71.128906 84.597656 72.515625 L 84.4375 72.636719 L 84.320312 72.832031 C 84.242188 72.953125 84.160156 73.113281 84.042969 73.230469 C 83.765625 72.398438 83.289062 71.644531 82.652344 71.007812 C 82.375 70.730469 82.097656 70.492188 81.78125 70.253906 Z M 81.78125 70.253906 " fill-opacity="1" fill-rule="evenodd"/><path fill="#15d675" d="M 44.730469 95.207031 C 44.414062 95.207031 44.09375 95.046875 43.9375 94.769531 L 33.820312 77.433594 C 33.703125 77.238281 33.664062 77 33.703125 76.761719 C 33.78125 76.523438 33.941406 76.324219 34.136719 76.207031 L 40.722656 72.359375 C 41.160156 72.121094 41.714844 72.238281 41.953125 72.675781 L 52.070312 89.972656 C 52.226562 90.207031 52.226562 90.445312 52.1875 90.683594 C 52.109375 90.882812 51.988281 91.082031 51.75 91.199219 L 45.167969 95.089844 C 45.007812 95.167969 44.886719 95.207031 44.730469 95.207031 Z M 44.730469 95.207031 " fill-opacity="1" fill-rule="evenodd"/><path fill="#15d675" d="M 73.847656 67.28125 C 73.609375 67.28125 73.410156 67.199219 73.210938 67.042969 C 66.746094 60.574219 60.082031 53.871094 60.082031 47.046875 C 60.082031 43.003906 63.375 39.710938 67.421875 39.710938 C 70.59375 39.710938 72.417969 41.21875 73.847656 43.558594 C 75.316406 41.21875 77.101562 39.710938 80.3125 39.710938 C 84.359375 39.710938 87.652344 43.003906 87.652344 47.046875 C 87.652344 53.871094 80.949219 60.574219 74.480469 67.042969 C 74.324219 67.199219 74.085938 67.28125 73.847656 67.28125 Z M 73.847656 67.28125 " fill-opacity="1" fill-rule="evenodd"/></svg>