<svg xmlns="http://www.w3.org/2000/svg" xmlns:xlink="http://www.w3.org/1999/xlink" width="180" zoomAndPan="magnify" viewBox="0 0 135 187.499995" height="250" preserveAspectRatio="xMidYMid meet" version="1.0"><defs><clipPath id="16424c1388"><path d="M 1.777344 1.71875 L 133.429688 1.71875 L 133.429688 133.367188 L 1.777344 133.367188 Z M 1.777344 1.71875 " clip-rule="nonzero"/></clipPath><clipPath id="7e1da310bb"><path d="M 14.671875 14.097656 L 121.636719 14.097656 L 121.636719 121 L 14.671875 121 Z M 14.671875 14.097656 " clip-rule="nonzero"/></clipPath></defs><path fill="#0cc0df" d="M 68.046875 184.972656 C 71.664062 184.796875 74.789062 182.386719 76.675781 179.417969 C 91.632812 156.023438 106.609375 132.632812 121.558594 109.230469 C 123.335938 106.527344 124.421875 103.089844 123.417969 99.898438 C 122.304688 95.996094 118.066406 93.964844 114.234375 94.117188 C 83.144531 94.082031 52.0625 94.089844 20.972656 94.0625 C 17.589844 94.019531 13.839844 95.4375 12.28125 98.640625 C 10.566406 101.957031 11.589844 105.964844 13.511719 108.957031 C 28.421875 132.371094 43.347656 155.78125 58.265625 179.1875 C 60.296875 182.539062 63.972656 185.269531 68.046875 184.972656 Z M 68.046875 184.972656 " fill-opacity="1" fill-rule="nonzero"/><g clip-path="url(#16424c1388)"><path fill="#0cc0df" d="M 34.328125 1.71875 L 100.667969 1.71875 C 101.734375 1.71875 102.796875 1.769531 103.859375 1.875 C 104.917969 1.980469 105.972656 2.136719 107.019531 2.34375 C 108.0625 2.550781 109.097656 2.808594 110.117188 3.121094 C 111.136719 3.429688 112.140625 3.789062 113.125 4.195312 C 114.109375 4.601562 115.070312 5.058594 116.011719 5.5625 C 116.953125 6.0625 117.863281 6.609375 118.75 7.203125 C 119.636719 7.796875 120.492188 8.429688 121.316406 9.105469 C 122.140625 9.78125 122.929688 10.496094 123.683594 11.25 C 124.4375 12.003906 125.152344 12.792969 125.828125 13.617188 C 126.503906 14.441406 127.140625 15.296875 127.730469 16.183594 C 128.324219 17.070312 128.871094 17.984375 129.375 18.921875 C 129.875 19.863281 130.332031 20.828125 130.738281 21.8125 C 131.148438 22.796875 131.507812 23.796875 131.816406 24.820312 C 132.125 25.839844 132.382812 26.871094 132.59375 27.917969 C 132.800781 28.964844 132.957031 30.015625 133.0625 31.078125 C 133.164062 32.136719 133.21875 33.203125 133.21875 34.265625 L 133.21875 100.605469 C 133.21875 101.671875 133.164062 102.734375 133.0625 103.796875 C 132.957031 104.859375 132.800781 105.910156 132.59375 106.957031 C 132.382812 108.003906 132.125 109.035156 131.816406 110.054688 C 131.507812 111.074219 131.148438 112.078125 130.738281 113.0625 C 130.332031 114.046875 129.875 115.011719 129.375 115.949219 C 128.871094 116.890625 128.324219 117.804688 127.730469 118.691406 C 127.140625 119.578125 126.503906 120.429688 125.828125 121.253906 C 125.152344 122.078125 124.4375 122.867188 123.683594 123.621094 C 122.929688 124.375 122.140625 125.089844 121.316406 125.769531 C 120.492188 126.445312 119.636719 127.078125 118.75 127.671875 C 117.863281 128.261719 116.953125 128.808594 116.011719 129.3125 C 115.070312 129.816406 114.109375 130.269531 113.125 130.679688 C 112.140625 131.085938 111.136719 131.445312 110.117188 131.753906 C 109.097656 132.0625 108.0625 132.324219 107.019531 132.53125 C 105.972656 132.738281 104.917969 132.894531 103.859375 133 C 102.796875 133.105469 101.734375 133.15625 100.667969 133.15625 L 34.328125 133.15625 C 33.261719 133.15625 32.199219 133.105469 31.136719 133 C 30.078125 132.894531 29.023438 132.738281 27.980469 132.53125 C 26.933594 132.324219 25.898438 132.0625 24.878906 131.753906 C 23.859375 131.445312 22.855469 131.085938 21.871094 130.679688 C 20.886719 130.269531 19.925781 129.816406 18.984375 129.3125 C 18.042969 128.808594 17.132812 128.261719 16.246094 127.671875 C 15.359375 127.078125 14.503906 126.445312 13.679688 125.769531 C 12.855469 125.089844 12.066406 124.375 11.3125 123.621094 C 10.558594 122.867188 9.84375 122.078125 9.167969 121.253906 C 8.492188 120.429688 7.855469 119.578125 7.265625 118.691406 C 6.671875 117.804688 6.125 116.890625 5.621094 115.949219 C 5.121094 115.011719 4.664062 114.046875 4.257812 113.0625 C 3.847656 112.078125 3.488281 111.074219 3.179688 110.054688 C 2.871094 109.035156 2.613281 108.003906 2.402344 106.957031 C 2.195312 105.910156 2.039062 104.859375 1.9375 103.796875 C 1.832031 102.734375 1.777344 101.671875 1.777344 100.605469 L 1.777344 34.265625 C 1.777344 33.203125 1.832031 32.136719 1.9375 31.078125 C 2.039062 30.015625 2.195312 28.964844 2.402344 27.917969 C 2.613281 26.871094 2.871094 25.839844 3.179688 24.820312 C 3.488281 23.796875 3.847656 22.796875 4.257812 21.8125 C 4.664062 20.828125 5.121094 19.863281 5.621094 18.921875 C 6.125 17.984375 6.671875 17.070312 7.265625 16.183594 C 7.855469 15.296875 8.492188 14.441406 9.167969 13.617188 C 9.84375 12.792969 10.558594 12.003906 11.3125 11.25 C 12.066406 10.496094 12.855469 9.78125 13.679688 9.105469 C 14.503906 8.429688 15.359375 7.796875 16.246094 7.203125 C 17.132812 6.609375 18.042969 6.0625 18.984375 5.5625 C 19.925781 5.058594 20.886719 4.601562 21.871094 4.195312 C 22.855469 3.789062 23.859375 3.429688 24.878906 3.121094 C 25.898438 2.808594 26.933594 2.550781 27.980469 2.34375 C 29.023438 2.136719 30.078125 1.980469 31.136719 1.875 C 32.199219 1.769531 33.261719 1.71875 34.328125 1.71875 Z M 34.328125 1.71875 " fill-opacity="1" fill-rule="nonzero"/></g><g clip-path="url(#7e1da310bb)"><path fill="#ffffff" d="M 105.730469 29.71875 C 95.65625 19.644531 82.261719 14.097656 68.011719 14.097656 C 53.765625 14.097656 40.371094 19.644531 30.292969 29.71875 C 20.21875 39.792969 14.671875 53.191406 14.671875 67.4375 C 14.671875 81.6875 20.21875 95.082031 30.292969 105.15625 C 40.371094 115.230469 53.765625 120.78125 68.011719 120.78125 C 82.261719 120.78125 95.65625 115.230469 105.730469 105.15625 C 115.808594 95.082031 121.355469 81.6875 121.355469 67.4375 C 121.355469 53.191406 115.808594 39.792969 105.730469 29.71875 Z M 105.730469 29.71875 " fill-opacity="1" fill-rule="nonzero"/></g><path fill="#0cc0df" d="M 80.753906 42.101562 C 81.167969 42.519531 81.566406 42.957031 81.941406 43.414062 C 82.3125 43.867188 82.664062 44.34375 82.992188 44.832031 C 83.320312 45.324219 83.625 45.828125 83.902344 46.347656 C 84.179688 46.871094 84.433594 47.402344 84.65625 47.949219 C 84.882812 48.492188 85.082031 49.046875 85.253906 49.613281 C 85.425781 50.175781 85.566406 50.75 85.683594 51.328125 C 85.796875 51.90625 85.882812 52.488281 85.941406 53.074219 C 86 53.664062 86.027344 54.25 86.027344 54.839844 C 86.027344 55.429688 86 56.019531 85.941406 56.605469 C 85.882812 57.195312 85.796875 57.777344 85.683594 58.355469 C 85.566406 58.933594 85.425781 59.507812 85.253906 60.070312 C 85.082031 60.636719 84.882812 61.191406 84.65625 61.734375 C 84.433594 62.28125 84.179688 62.8125 83.902344 63.335938 C 83.625 63.855469 83.320312 64.359375 82.992188 64.851562 C 82.664062 65.339844 82.3125 65.8125 81.941406 66.269531 C 81.566406 66.726562 81.167969 67.164062 80.753906 67.582031 C 80.335938 67.996094 79.898438 68.394531 79.441406 68.769531 C 78.988281 69.140625 78.511719 69.492188 78.023438 69.820312 C 77.53125 70.148438 77.027344 70.453125 76.507812 70.730469 C 75.984375 71.007812 75.453125 71.261719 74.90625 71.484375 C 74.363281 71.710938 73.808594 71.910156 73.242188 72.082031 C 72.679688 72.253906 72.105469 72.394531 71.527344 72.511719 C 70.949219 72.625 70.367188 72.710938 69.78125 72.769531 C 69.191406 72.828125 68.605469 72.855469 68.015625 72.855469 C 67.421875 72.855469 66.835938 72.828125 66.246094 72.769531 C 65.660156 72.710938 65.078125 72.625 64.5 72.511719 C 63.921875 72.394531 63.347656 72.253906 62.785156 72.082031 C 62.21875 71.910156 61.664062 71.710938 61.121094 71.484375 C 60.574219 71.261719 60.042969 71.007812 59.519531 70.730469 C 59 70.453125 58.496094 70.148438 58.003906 69.820312 C 57.515625 69.492188 57.039062 69.140625 56.585938 68.769531 C 56.128906 68.394531 55.691406 67.996094 55.273438 67.582031 C 54.859375 67.164062 54.460938 66.726562 54.085938 66.269531 C 53.714844 65.8125 53.363281 65.339844 53.035156 64.851562 C 52.707031 64.359375 52.402344 63.855469 52.125 63.335938 C 51.847656 62.8125 51.59375 62.28125 51.371094 61.734375 C 51.144531 61.191406 50.945312 60.636719 50.773438 60.070312 C 50.601562 59.507812 50.460938 58.933594 50.34375 58.355469 C 50.230469 57.777344 50.144531 57.195312 50.085938 56.605469 C 50.027344 56.019531 50 55.429688 50 54.839844 C 50 54.25 50.027344 53.664062 50.085938 53.074219 C 50.144531 52.488281 50.230469 51.90625 50.34375 51.328125 C 50.460938 50.75 50.601562 50.175781 50.773438 49.613281 C 50.945312 49.046875 51.144531 48.492188 51.371094 47.949219 C 51.59375 47.402344 51.847656 46.871094 52.125 46.347656 C 52.402344 45.828125 52.707031 45.324219 53.035156 44.832031 C 53.363281 44.34375 53.714844 43.867188 54.085938 43.414062 C 54.460938 42.957031 54.859375 42.519531 55.273438 42.101562 C 55.691406 41.683594 56.128906 41.289062 56.585938 40.914062 C 57.039062 40.542969 57.515625 40.191406 58.003906 39.863281 C 58.496094 39.535156 59 39.230469 59.519531 38.953125 C 60.042969 38.675781 60.574219 38.421875 61.121094 38.199219 C 61.664062 37.972656 62.21875 37.773438 62.785156 37.601562 C 63.347656 37.429688 63.921875 37.289062 64.5 37.171875 C 65.078125 37.058594 65.660156 36.96875 66.246094 36.914062 C 66.835938 36.855469 67.421875 36.824219 68.015625 36.824219 C 68.605469 36.824219 69.191406 36.855469 69.78125 36.914062 C 70.367188 36.96875 70.949219 37.058594 71.527344 37.171875 C 72.105469 37.289062 72.679688 37.429688 73.242188 37.601562 C 73.808594 37.773438 74.363281 37.972656 74.90625 38.199219 C 75.453125 38.421875 75.984375 38.675781 76.507812 38.953125 C 77.027344 39.230469 77.53125 39.535156 78.023438 39.863281 C 78.511719 40.191406 78.988281 40.542969 79.441406 40.914062 C 79.898438 41.289062 80.335938 41.683594 80.753906 42.101562 Z M 80.753906 42.101562 " fill-opacity="1" fill-rule="nonzero"/><path fill="#0cc0df" d="M 68.535156 80.863281 L 67.492188 80.863281 C 52.773438 80.863281 40.375 90.800781 36.640625 104.332031 C 45.101562 111.539062 56.058594 115.894531 68.011719 115.894531 C 79.96875 115.894531 90.925781 111.539062 99.386719 104.332031 C 95.648438 90.800781 83.253906 80.863281 68.535156 80.863281 Z M 68.535156 80.863281 " fill-opacity="1" fill-rule="nonzero"/></svg>